<?xml version="1.0" encoding="iso-8859-1"?>
<!-- Generator: Adobe Illustrator 19.0.0, SVG Export Plug-In . SVG Version: 6.00 Build 0)  -->
<svg xmlns="http://www.w3.org/2000/svg" xmlns:xlink="http://www.w3.org/1999/xlink" version="1.1" id="Layer_1" x="0px" y="0px" viewBox="0 0 512 512" style="enable-background:new 0 0 512 512;" xml:space="preserve">
<g>
	<g>
		<path d="M494.933,229.784h-28.445c0-10.959,0-45.091,0-55.915c0-21.958-17.865-39.823-39.823-39.823H85.334    c-21.958,0-39.823,17.864-39.823,39.823c0,10.816,0,44.953,0,55.915H17.067C7.641,229.784,0,237.425,0,246.85v70.837    c0,9.425,7.641,17.067,17.067,17.067h28.445v3.377c0,21.958,17.865,39.823,39.823,39.823h113.786    c20.646,0,37.688-15.499,39.644-36.052l2.443-25.683h29.585l2.443,25.683c1.956,20.553,18.998,36.052,39.644,36.052h113.786    c21.958,0,39.823-17.864,39.823-39.823v-3.377h28.445c9.425,0,17.067-7.641,17.067-17.067V246.85    C512,237.424,504.359,229.784,494.933,229.784z M45.512,300.619H34.134v-36.703h11.378V300.619z M432.354,338.13    c0,3.137-2.552,5.689-5.689,5.689H312.879c-2.949,0-5.384-2.214-5.664-5.15l-3.913-41.133c-0.833-8.76-8.19-15.451-16.991-15.451    h-60.625c-8.8,0-16.157,6.69-16.991,15.451l-3.913,41.133c-0.279,2.937-2.715,5.15-5.664,5.15H85.334    c-3.137,0-5.689-2.552-5.689-5.689c0-12.424,0-105.346,0-117.412h352.709C432.354,233.1,432.354,325.43,432.354,338.13z     M432.354,186.584H79.646v-12.715c0-3.137,2.552-5.689,5.689-5.689h341.331c3.137,0,5.689,2.552,5.689,5.689V186.584z     M477.866,300.619h-11.378v-36.703h11.378V300.619z"/>
	</g>
</g>
<g>
</g>
<g>
</g>
<g>
</g>
<g>
</g>
<g>
</g>
<g>
</g>
<g>
</g>
<g>
</g>
<g>
</g>
<g>
</g>
<g>
</g>
<g>
</g>
<g>
</g>
<g>
</g>
<g>
</g>
</svg>
