<?xml version="1.0" encoding="iso-8859-1"?>
<!-- Generator: Adobe Illustrator 19.0.0, SVG Export Plug-In . SVG Version: 6.00 Build 0)  -->
<svg xmlns="http://www.w3.org/2000/svg" xmlns:xlink="http://www.w3.org/1999/xlink" version="1.1" id="Layer_1" x="0px" y="0px" viewBox="0 0 511.998 511.998" style="enable-background:new 0 0 511.998 511.998;" xml:space="preserve">
<g>
	<g>
		<path d="M380.28,145.759h-92.595c-17.875,0-32.416-14.541-32.416-32.416V79.832h13.136c9.415,0,17.048-7.633,17.048-17.048    s-7.633-17.048-17.048-17.048H22.753c-9.415,0-17.048,7.633-17.048,17.048s7.633,17.048,17.048,17.048h11.243    C-7.019,341.957,0.55,269.713,0.55,349.332c0,9.415,7.633,17.048,17.048,17.048h16.454c-5.505,9.724-8.666,20.943-8.666,32.893    c0,36.938,30.052,66.99,66.99,66.99c31.048,0,57.223-21.234,64.784-49.941h198.328c7.56,28.707,33.736,49.941,64.785,49.941    c36.938,0,66.989-30.052,66.989-66.99c0-11.95-3.16-23.169-8.666-32.893h16.355c9.415,0,17.048-7.633,17.048-17.048    c0-9.221,0-64.484,0-71.854C512,204.848,452.912,145.759,380.28,145.759z M92.376,432.166c-18.137,0-32.893-14.756-32.893-32.893    s14.756-32.893,32.893-32.893s32.893,14.756,32.893,32.893S110.513,432.166,92.376,432.166z M355.488,382.225H157.161    c-1.475-5.602-3.669-10.913-6.46-15.845H361.95C359.157,371.312,356.965,376.623,355.488,382.225z M420.273,432.166    c-18.137,0-32.893-14.756-32.893-32.893s14.756-32.893,32.893-32.893s32.892,14.756,32.892,32.893S438.41,432.166,420.273,432.166    z M477.903,332.283H34.647v-20.326h443.257V332.283z M477.905,277.862H37.522L68.507,79.836h152.667v33.506    c0,8.225,1.512,16.102,4.253,23.379l-39.745,39.745c-6.658,6.658-6.658,17.452,0,24.11c6.657,6.658,17.452,6.659,24.11,0    l35.79-35.789c11.475,9.411,26.141,15.068,42.105,15.068h92.595c53.83,0,97.623,43.794,97.623,97.623V277.862z"/>
	</g>
</g>
<g>
</g>
<g>
</g>
<g>
</g>
<g>
</g>
<g>
</g>
<g>
</g>
<g>
</g>
<g>
</g>
<g>
</g>
<g>
</g>
<g>
</g>
<g>
</g>
<g>
</g>
<g>
</g>
<g>
</g>
</svg>
