<?xml version="1.0" encoding="iso-8859-1"?>
<!-- Generator: Adobe Illustrator 19.0.0, SVG Export Plug-In . SVG Version: 6.00 Build 0)  -->
<svg xmlns="http://www.w3.org/2000/svg" xmlns:xlink="http://www.w3.org/1999/xlink" version="1.1" id="Layer_1" x="0px" y="0px" viewBox="0 0 511.998 511.998" style="enable-background:new 0 0 511.998 511.998;" xml:space="preserve">
<g>
	<g>
		<path d="M511.61,445.813l-29.829-138.5c-0.001-0.003-0.001-0.007-0.002-0.011l-15.689-72.815    c-1.014-4.702-3.964-8.759-8.127-11.17l-96.433-55.876v-14.229l93.885-35.236c14.718-5.525,14.723-26.428,0-31.956L350.461,46.63    c-11.147-4.183-23.063,4.071-23.063,15.977c0,13.422,0,94.276,0,104.869l-96.369,55.839c-3.327,1.931-6.005,5.168-7.321,8.508    l-33.728,85.547H62.589c-7,0-13.291,4.276-15.868,10.785L1.212,443.123c-4.433,11.2,3.843,23.347,15.868,23.347h477.848    C505.802,466.472,513.896,456.423,511.61,445.813z M361.531,87.241l39.32,14.758l-39.32,14.758V87.241z M344.498,197.018    l89.818,52.043l12.098,56.151l-17.564,16.953l-62.465-60.294c-6.612-6.383-17.091-6.383-23.703-0.001l-26.944,26.003    l-48.026-46.361L344.498,197.018z M42.19,432.339l31.998-80.835h127.409c7.01,0,13.306-4.286,15.877-10.806l28.625-72.606    l57.782,55.779c6.614,6.384,17.092,6.384,23.703,0.001l26.945-26.004l62.465,60.294c6.615,6.384,17.092,6.383,23.703,0    l14.173-13.679l18.922,87.856H42.19z"/>
	</g>
</g>
<g>
</g>
<g>
</g>
<g>
</g>
<g>
</g>
<g>
</g>
<g>
</g>
<g>
</g>
<g>
</g>
<g>
</g>
<g>
</g>
<g>
</g>
<g>
</g>
<g>
</g>
<g>
</g>
<g>
</g>
</svg>
