<?xml version="1.0" encoding="iso-8859-1"?>
<!-- Generator: Adobe Illustrator 19.0.0, SVG Export Plug-In . SVG Version: 6.00 Build 0)  -->
<svg xmlns="http://www.w3.org/2000/svg" xmlns:xlink="http://www.w3.org/1999/xlink" version="1.1" id="Layer_1" x="0px" y="0px" viewBox="0 0 512.001 512.001" style="enable-background:new 0 0 512.001 512.001;" xml:space="preserve">
<g>
	<g>
		<path d="M464.765,487.466L274.979,97.535l35.528-72.996c4.124-8.475,0.599-18.689-7.877-22.815    c-8.475-4.124-18.689-0.599-22.815,7.877l-23.817,48.937L232.181,9.603c-4.124-8.475-14.339-12-22.815-7.877    c-8.475,4.124-12.001,14.339-7.877,22.815l35.528,72.996L47.233,487.466c-5.5,11.3,2.73,24.535,15.345,24.535    c3.385,0,380.962,0,386.842,0C461.989,512.001,470.286,498.809,464.765,487.466z M295.821,477.868h-79.644v-73.955    c0-21.958,17.864-39.822,39.822-39.822s39.822,17.864,39.822,39.822V477.868z M329.954,477.868v-73.955    c0-40.779-33.176-73.955-73.955-73.955s-73.955,33.176-73.955,73.955v73.955H89.866l166.133-341.334l166.134,341.334H329.954z"/>
	</g>
</g>
<g>
</g>
<g>
</g>
<g>
</g>
<g>
</g>
<g>
</g>
<g>
</g>
<g>
</g>
<g>
</g>
<g>
</g>
<g>
</g>
<g>
</g>
<g>
</g>
<g>
</g>
<g>
</g>
<g>
</g>
</svg>
