<?xml version="1.0" encoding="iso-8859-1"?>
<!-- Generator: Adobe Illustrator 19.0.0, SVG Export Plug-In . SVG Version: 6.00 Build 0)  -->
<svg xmlns="http://www.w3.org/2000/svg" xmlns:xlink="http://www.w3.org/1999/xlink" version="1.1" id="Layer_1" x="0px" y="0px" viewBox="0 0 512 512" style="enable-background:new 0 0 512 512;" xml:space="preserve">
<g>
	<g>
		<path d="M462.528,124.17l7.57-7.57v0.001c20.646-20.646,20.649-54.059,0.001-74.707c-20.646-20.646-54.06-20.649-74.707,0    l-7.57,7.57C313.883-2.569,214.628-19.729,141.828,28.299c-14.512,9.572-9.202,32.096,8.018,34.22    c49.644,6.129,105.135,31.445,154.718,70.202l-31.817,31.817c-7.314,7.313-7.314,19.172,0,26.486l10.867,10.867l-88.54,88.54    l-10.869-10.869c-7.312-7.314-19.171-7.314-26.486,0L5.484,431.798c-7.309,7.307-7.314,19.175,0,26.486l48.224,48.224    c7.307,7.309,19.175,7.314,26.486,0L232.43,354.272c7.314-7.313,7.314-19.172,0-26.486l-10.869-10.869l88.54-88.54l10.867,10.867    c7.314,7.314,19.172,7.314,26.486,0l31.817-31.817c38.76,49.587,64.073,105.076,70.202,154.718    c2.125,17.226,24.659,22.516,34.22,8.018C532.049,296.867,514.138,197.504,462.528,124.17z M66.951,466.778L45.213,445.04    l125.75-125.748l21.737,21.737L66.951,466.778z M421.879,68.38c6.003-6.006,15.725-6.01,21.732,0.001    c6.006,6.003,6.008,15.726,0,21.731v0.001l-4.616,4.616c-6.41-7.082-13.738-14.497-21.733-21.733L421.879,68.38z M334.21,199.515    c-0.197-0.197-0.312-0.312-0.381-0.381c0,0-0.012-0.012-0.032-0.032c0.009,0.009,0.017,0.017,0.023,0.023    c-0.081-0.081-0.091-0.091-0.072-0.072c-0.492-0.492-3.755-3.755-21.271-21.271l20.627-20.626    c7.658,7.149,14.554,14.044,21.733,21.732L334.21,199.515z M472.352,297.795C432.948,185.374,326.619,79.045,214.198,39.64    C347.355,17.428,494.767,163.344,472.352,297.795z"/>
	</g>
</g>
<g>
</g>
<g>
</g>
<g>
</g>
<g>
</g>
<g>
</g>
<g>
</g>
<g>
</g>
<g>
</g>
<g>
</g>
<g>
</g>
<g>
</g>
<g>
</g>
<g>
</g>
<g>
</g>
<g>
</g>
</svg>
