<?xml version="1.0" encoding="iso-8859-1"?>
<!-- Generator: Adobe Illustrator 19.0.0, SVG Export Plug-In . SVG Version: 6.00 Build 0)  -->
<svg xmlns="http://www.w3.org/2000/svg" xmlns:xlink="http://www.w3.org/1999/xlink" version="1.1" id="Layer_1" x="0px" y="0px" viewBox="0 0 512 512" style="enable-background:new 0 0 512 512;" xml:space="preserve">
<g>
	<g>
		<path d="M431.983,131.483l22.695-22.695c7.315-7.314,7.315-19.175,0-26.49c-7.314-7.314-19.175-7.314-26.49,0l-22.695,22.695    c-35.859-30.508-81.115-50.276-130.761-54.278V37.463h8.928c10.345,0,18.732-8.387,18.732-18.732S294.004,0,283.659,0h-55.32    c-10.345,0-18.732,8.387-18.732,18.732s8.387,18.732,18.732,18.732h8.929v13.251c-49.647,4.002-94.902,23.771-130.761,54.278    L83.811,82.296c-7.314-7.314-19.175-7.314-26.49,0c-7.315,7.314-7.315,19.175,0,26.49l22.695,22.695    c-34.304,40.323-55.04,92.528-55.04,149.494C24.976,408.364,128.612,512,256,512s231.024-103.636,231.024-231.024    C487.024,224.01,466.288,171.805,431.983,131.483z M256,474.537c-106.73,0-193.561-86.831-193.561-193.561    S149.27,87.415,256,87.415s193.561,86.831,193.561,193.561S362.73,474.537,256,474.537z"/>
	</g>
</g>
<g>
	<g>
		<path d="M354.148,182.829c-5.647-5.647-14.249-7.092-21.429-3.604l-114.291,55.513c-3.83,1.859-6.902,5.033-8.664,8.664    l-55.513,114.291c-3.489,7.182-2.042,15.785,3.604,21.429c5.648,5.648,14.252,7.089,21.429,3.604l114.291-55.513    c3.595-1.742,6.823-4.869,8.664-8.664l55.513-114.291C361.241,197.076,359.794,188.473,354.148,182.829z M211.591,325.386    l20.376-41.953l21.576,21.576L211.591,325.386z M280.033,278.518l-21.576-21.576l41.953-20.376L280.033,278.518z"/>
	</g>
</g>
<g>
</g>
<g>
</g>
<g>
</g>
<g>
</g>
<g>
</g>
<g>
</g>
<g>
</g>
<g>
</g>
<g>
</g>
<g>
</g>
<g>
</g>
<g>
</g>
<g>
</g>
<g>
</g>
<g>
</g>
</svg>
