<?xml version="1.0" encoding="iso-8859-1"?>
<!-- Generator: Adobe Illustrator 19.0.0, SVG Export Plug-In . SVG Version: 6.00 Build 0)  -->
<svg xmlns="http://www.w3.org/2000/svg" xmlns:xlink="http://www.w3.org/1999/xlink" version="1.1" id="Layer_1" x="0px" y="0px" viewBox="0 0 512 512" style="enable-background:new 0 0 512 512;" xml:space="preserve">
<g>
	<g>
		<path d="M503.081,167.846c-37.6-23.127-62.861-83.053-62.861-149.114C440.22,8.387,431.833,0,421.488,0h-67.594    c-6.614,0-12.738,3.488-16.111,9.177l-81.785,137.904L174.204,9.176C170.829,3.488,164.705,0,158.092,0h-67.58    C80.167,0,71.78,8.387,71.78,18.732c0,66.062-25.263,125.987-62.862,149.114C3.424,171.227,0,177.297,0,183.802v281.554    C0,491.075,20.925,512,46.646,512c5.987,0,412.722,0,418.709,0C491.075,512,512,491.075,512,465.354V183.802    C512,177.432,508.688,171.296,503.081,167.846z M364.564,37.463h38.778c3.137,49.929,18.722,95.243,43.014,127.61H288.884    L364.564,37.463z M108.658,37.463h38.766l75.69,127.61H65.643C89.937,132.707,105.522,87.392,108.658,37.463z M37.463,202.537    h199.805v98.765h-65.01c-10.345,0-18.732,8.387-18.732,18.732v25.93H37.463V202.537z M321.009,338.767v51.861    c-18.845,0-111.165,0-130.019,0v-51.861C209.836,338.767,302.155,338.767,321.009,338.767z M237.268,474.537H46.646    c-5.064,0-9.182-4.118-9.182-9.182v-81.927h116.063v25.932c0,10.345,8.387,18.732,18.732,18.732h65.01V474.537z M474.537,465.354    c0,5.064-4.118,9.182-9.182,9.182H274.732v-46.446h65.01c10.345,0,18.732-8.387,18.732-18.732v-25.932h116.063V465.354z     M474.537,345.963H358.474v-25.93c0-10.345-8.387-18.732-18.732-18.732h-65.01v-98.765h199.805V345.963z"/>
	</g>
</g>
<g>
</g>
<g>
</g>
<g>
</g>
<g>
</g>
<g>
</g>
<g>
</g>
<g>
</g>
<g>
</g>
<g>
</g>
<g>
</g>
<g>
</g>
<g>
</g>
<g>
</g>
<g>
</g>
<g>
</g>
</svg>
