<?xml version="1.0" encoding="iso-8859-1"?>
<!-- Generator: Adobe Illustrator 19.0.0, SVG Export Plug-In . SVG Version: 6.00 Build 0)  -->
<svg xmlns="http://www.w3.org/2000/svg" xmlns:xlink="http://www.w3.org/1999/xlink" version="1.1" id="Layer_1" x="0px" y="0px" viewBox="0 0 512.001 512.001" style="enable-background:new 0 0 512.001 512.001;" xml:space="preserve">
<g>
	<g>
		<path d="M494.082,35.009H17.918C8.023,35.009,0,43.031,0,52.927v406.147c0,9.896,8.023,17.918,17.918,17.918h172.634    c7.73,0,14.589-4.956,17.014-12.297c1.705-5.158,46.73-141.434,48.434-146.591c1.705,5.158,46.73,141.432,48.434,146.591    c2.425,7.34,9.284,12.297,17.014,12.297h172.634c9.896,0,17.918-8.023,17.918-17.918V52.927    C512,43.03,503.977,35.009,494.082,35.009z M35.837,130.198h28.06l-28.06,38.773V130.198z M177.6,441.156H35.837v-18.553H183.73    L177.6,441.156z M476.163,441.156H334.4l-6.13-18.553h147.894V441.156z M476.163,386.766H316.428l-43.414-131.397    c-5.399-16.339-28.625-16.355-34.029,0l-43.414,131.397H35.837V230.094l72.295-99.897H185.7v38.748    c-7.249,5.453-11.945,14.126-11.945,23.874c0,16.467,13.397,29.864,29.864,29.864c16.467,0,29.864-13.397,29.864-29.864    c0-9.749-4.697-18.421-11.945-23.874v-38.748h68.927v38.748c-7.249,5.453-11.945,14.126-11.945,23.874    c0,16.467,13.397,29.864,29.864,29.864s29.864-13.397,29.864-29.864c0-9.749-4.697-18.421-11.945-23.874v-38.748h77.568    l72.295,99.897V386.766z M476.163,168.97l-28.06-38.773h28.06V168.97z M476.163,94.362H35.837V70.845h440.327V94.362z"/>
	</g>
</g>
<g>
</g>
<g>
</g>
<g>
</g>
<g>
</g>
<g>
</g>
<g>
</g>
<g>
</g>
<g>
</g>
<g>
</g>
<g>
</g>
<g>
</g>
<g>
</g>
<g>
</g>
<g>
</g>
<g>
</g>
</svg>
