<?xml version="1.0" encoding="iso-8859-1"?>
<!-- Generator: Adobe Illustrator 19.0.0, SVG Export Plug-In . SVG Version: 6.00 Build 0)  -->
<svg xmlns="http://www.w3.org/2000/svg" xmlns:xlink="http://www.w3.org/1999/xlink" version="1.1" id="Layer_1" x="0px" y="0px" viewBox="0 0 512 512" style="enable-background:new 0 0 512 512;" xml:space="preserve">
<g>
	<g>
		<path d="M494.294,237.494h-64.841v-99.901v-21.765c0-25.222-20.519-45.741-45.741-45.741h-56.1    C319.66,37.932,290.576,14.017,256,14.017s-63.66,23.915-71.613,56.069h-56.1c-25.222,0-45.741,20.519-45.741,45.741v21.765    v99.901H17.706C7.928,237.494,0,245.421,0,255.2v126.218c0,25.222,20.519,45.741,45.741,45.741h39.852    c-1.965,5.542-3.045,11.498-3.045,17.706c0,29.289,23.829,53.118,53.118,53.118h240.671c29.289,0,53.118-23.829,53.118-53.118    c0-6.208-1.08-12.164-3.045-17.706h39.85c25.222,0,45.741-20.519,45.741-45.741V255.2    C512,245.421,504.072,237.494,494.294,237.494z M82.547,391.746H45.741c-5.695,0-10.329-4.633-10.329-10.329v-59.42h47.135    V391.746z M82.547,286.585H35.412v-13.68h47.135V286.585z M256,49.429c14.769,0,27.607,8.394,34.016,20.657h-68.033    C228.393,57.823,241.231,49.429,256,49.429z M138.616,462.571h-2.951c-9.764,0-17.706-7.943-17.706-17.706    s7.943-17.706,17.706-17.706h2.951V462.571z M338.456,462.571H174.028v-35.412h164.428V462.571z M376.335,462.571h-2.467v-35.412    h2.467c9.763,0,17.706,7.943,17.706,17.706S386.099,462.571,376.335,462.571z M394.042,255.2v136.547    c-5.341,0-246.232,0-276.083,0V255.2v-54.615c11.185,6.837,24.321,10.783,38.363,10.783h36.15v26.126h-36.15    c-9.778,0-17.706,7.928-17.706,17.706v98.184c0,9.778,7.928,17.706,17.706,17.706h199.357c9.778,0,17.706-7.928,17.706-17.706    V255.2c0-9.779-7.928-17.706-17.706-17.706H319.52v-26.126h36.159c14.042,0,27.178-3.946,38.363-10.783V255.2z M284.108,272.906    v31.386c0,9.779,7.926,17.706,17.706,17.706c9.778,0,17.706-7.928,17.706-17.706v-31.386h18.453v62.771H174.028v-62.772h18.444    v31.386c0,9.779,7.928,17.706,17.706,17.706s17.706-7.928,17.706-17.706v-31.386H284.108z M227.884,237.494v-26.126h56.224v26.126    H227.884z M394.042,137.593c0,21.154-17.209,38.363-38.363,38.363H319.52v-14.142c0-9.778-7.928-17.706-17.706-17.706    s-17.706,7.928-17.706,17.706v14.142h-56.224v-14.142c0-9.778-7.928-17.706-17.706-17.706c-9.778,0-17.706,7.928-17.706,17.706    v14.142h-36.15c-21.154,0-38.363-17.209-38.363-38.363v-21.765c0-5.695,4.633-10.329,10.328-10.329h255.426    c5.695,0,10.329,4.633,10.329,10.329V137.593z M476.588,381.418c0,5.695-4.633,10.329-10.328,10.329h-36.806v-69.749h47.135    V381.418z M476.588,286.585h-47.135v-13.68h47.135V286.585z"/>
	</g>
</g>
<g>
</g>
<g>
</g>
<g>
</g>
<g>
</g>
<g>
</g>
<g>
</g>
<g>
</g>
<g>
</g>
<g>
</g>
<g>
</g>
<g>
</g>
<g>
</g>
<g>
</g>
<g>
</g>
<g>
</g>
</svg>
