<?xml version="1.0" encoding="iso-8859-1"?>
<!-- Generator: Adobe Illustrator 19.0.0, SVG Export Plug-In . SVG Version: 6.00 Build 0)  -->
<svg xmlns="http://www.w3.org/2000/svg" xmlns:xlink="http://www.w3.org/1999/xlink" version="1.1" id="Layer_1" x="0px" y="0px" viewBox="0 0 512 512" style="enable-background:new 0 0 512 512;" xml:space="preserve">
<g>
	<g>
		<path d="M491.268,20.736c-43.136-43.139-131.41-15.665-198.964,51.888c-39.891,39.891-78.959,102.593-71.786,156.883    c-11.525,1.561-22.647,6.75-31.486,15.59c-17.064,17.061-20.393,42.203-10.942,62.322L93.789,391.72    c-0.014,0.014-0.025,0.029-0.039,0.042c-12.81,12.767-33.645,12.924-46.61-0.039c-12.892-12.893-12.893-33.758,0-46.651    l6.092-6.093l7.453,7.453c7.313,7.313,19.173,7.313,26.487,0c7.314-7.313,7.314-19.173,0-26.487L66.476,299.25    c-7.307-7.309-19.174-7.314-26.487,0l-19.337,19.337c-27.531,27.528-27.535,72.093,0,99.625    c13.599,13.599,32.243,21.36,52.592,20.58c-0.733,18.944,6.116,38.128,20.546,52.558c27.532,27.532,72.093,27.535,99.626,0    l19.336-19.335c7.308-7.307,7.314-19.175,0-26.487l-20.696-20.696c-7.313-7.313-19.173-7.313-26.487,0    c-7.314,7.313-7.314,19.173,0,26.487l7.452,7.453l-6.092,6.092c-12.891,12.892-33.758,12.895-46.651,0    c-12.861-12.862-12.861-33.79,0-46.651c0.025-0.025,0.045-0.051,0.069-0.076l84.25-84.248    c20.454,9.563,45.518,5.862,62.302-10.922c8.622-8.619,14.018-19.597,15.618-31.477c53.817,7.096,116.219-31.147,156.863-71.789    C507.044,152.033,534.339,63.808,491.268,20.736z M240.412,296.479c-6.865,6.861-18.033,6.862-24.895,0    c-6.881-6.882-6.88-18.014,0-24.895c6.861-6.861,18.026-6.864,24.891-0.003c0.003,0.003,0.004,0.005,0.006,0.006    c0,0,0.001,0.001,0.003,0.001C247.291,278.47,247.292,289.598,240.412,296.479z M412.892,193.213    c-58.307,58.304-123.737,74.141-145.989,51.889c-22.254-22.254-6.419-87.685,51.888-145.99    c58.301-58.298,123.731-74.143,145.99-51.889C487.034,69.477,471.196,134.906,412.892,193.213z"/>
	</g>
</g>
<g>
</g>
<g>
</g>
<g>
</g>
<g>
</g>
<g>
</g>
<g>
</g>
<g>
</g>
<g>
</g>
<g>
</g>
<g>
</g>
<g>
</g>
<g>
</g>
<g>
</g>
<g>
</g>
<g>
</g>
</svg>
