<?xml version="1.0" encoding="iso-8859-1"?>
<!-- Generator: Adobe Illustrator 19.0.0, SVG Export Plug-In . SVG Version: 6.00 Build 0)  -->
<svg xmlns="http://www.w3.org/2000/svg" xmlns:xlink="http://www.w3.org/1999/xlink" version="1.1" id="Layer_1" x="0px" y="0px" viewBox="0 0 512 512" style="enable-background:new 0 0 512 512;" xml:space="preserve">
<g>
	<g>
		<path d="M494.294,296.514h-64.841V137.593v-21.765c0-25.222-20.519-45.741-45.741-45.741h-56.1    C319.66,37.932,290.576,14.017,256,14.017s-63.66,23.915-71.613,56.069h-56.1c-25.222,0-45.741,20.519-45.741,45.741v21.765    v158.921H17.706C7.928,296.514,0,304.441,0,314.22v138.022c0,25.222,20.519,45.741,45.741,45.741c16.971,0,406.452,0,420.519,0    c25.222,0,45.741-20.519,45.741-45.741V314.22C512,304.441,504.072,296.514,494.294,296.514z M82.547,462.571H45.741    c-5.695,0-10.329-4.633-10.329-10.329V331.926h47.135V462.571z M256,49.429c14.769,0,27.606,8.394,34.016,20.657h-68.031    C228.394,57.823,241.231,49.429,256,49.429z M394.042,314.22v148.351H117.959V314.22V200.584    c11.185,6.837,24.321,10.784,38.363,10.784h24.346v52.125c0,9.779,7.928,17.706,17.706,17.706c9.778,0,17.706-7.928,17.706-17.706    v-52.125h79.832v52.125c0,9.779,7.928,17.706,17.706,17.706s17.706-7.928,17.706-17.706v-52.125h24.355    c14.042,0,27.178-3.946,38.363-10.784V314.22z M394.042,137.593c0,21.154-17.21,38.363-38.363,38.363h-24.355v-14.142    c0-9.778-7.928-17.706-17.706-17.706s-17.706,7.928-17.706,17.706v14.142H216.08v-14.142c0-9.778-7.928-17.706-17.706-17.706    s-17.706,7.928-17.706,17.706v14.142h-24.346c-21.153,0-38.363-17.209-38.363-38.363v-21.765c0-5.695,4.633-10.329,10.328-10.329    h255.426c5.695,0,10.329,4.633,10.329,10.329V137.593z M476.588,452.242c0,5.695-4.633,10.329-10.328,10.329h-36.806V331.926    h47.135V452.242z"/>
	</g>
</g>
<g>
	<g>
		<path d="M355.678,296.514H156.322c-9.778,0-17.706,7.928-17.706,17.706v109.988c0,9.778,7.928,17.706,17.706,17.706h199.357    c9.778,0,17.706-7.928,17.706-17.706V314.22C373.384,304.441,365.458,296.514,355.678,296.514z M337.973,406.501h-0.001H174.028    v-74.576h163.945V406.501z"/>
	</g>
</g>
<g>
</g>
<g>
</g>
<g>
</g>
<g>
</g>
<g>
</g>
<g>
</g>
<g>
</g>
<g>
</g>
<g>
</g>
<g>
</g>
<g>
</g>
<g>
</g>
<g>
</g>
<g>
</g>
<g>
</g>
</svg>
