<?xml version="1.0" encoding="iso-8859-1"?>
<!-- Generator: Adobe Illustrator 19.0.0, SVG Export Plug-In . SVG Version: 6.00 Build 0)  -->
<svg xmlns="http://www.w3.org/2000/svg" xmlns:xlink="http://www.w3.org/1999/xlink" version="1.1" id="Layer_1" x="0px" y="0px" viewBox="0 0 512 512" style="enable-background:new 0 0 512 512;" xml:space="preserve">
<g>
	<g>
		<path d="M276.503,0h-41.005C131.658,0,45.511,61.112,45.511,167.231v16.304c0,21.958,17.864,39.822,39.822,39.822h11.461v10.551    c0,21.958,17.864,39.822,39.822,39.822h17.636l130.152,161.794v59.409c0,9.425,7.641,17.067,17.067,17.067    s17.067-7.641,17.067-17.067V432.21l34.115-105.18h74.015c21.958,0,39.822-17.864,39.822-39.822V167.231    C466.489,61.143,380.375,0,276.503,0z M136.616,239.598c-3.137,0-5.689-2.552-5.689-5.689v-10.551h144.597v16.24H136.616z     M294.978,394.214L198.06,273.731h77.464v13.478c0,21.958,17.864,39.822,39.822,39.822h1.422L294.978,394.214z M432.356,287.209    c0,3.137-2.552,5.689-5.689,5.689h-86.162c-0.051-0.001-0.101,0-0.152,0h-25.006c-3.137,0-5.689-2.552-5.689-5.689v-30.545    v-50.373c0-9.425-7.641-17.067-17.067-17.067h-178.73H85.333c-3.137,0-5.689-2.552-5.689-5.689v-16.304    c0-86.393,70.602-133.098,155.853-133.098h41.005c85.228,0,155.853,46.675,155.853,133.097V287.209z"/>
	</g>
</g>
<g>
	<g>
		<path d="M393.779,189.225h-45.546c-9.425,0-17.067,7.641-17.067,17.067s7.641,17.067,17.067,17.067h45.546    c9.425,0,17.067-7.641,17.067-17.067S403.205,189.225,393.779,189.225z"/>
	</g>
</g>
<g>
	<g>
		<path d="M393.779,239.598h-45.546c-9.425,0-17.067,7.641-17.067,17.067s7.641,17.067,17.067,17.067h45.546    c9.425,0,17.067-7.641,17.067-17.067S403.205,239.598,393.779,239.598z"/>
	</g>
</g>
<g>
</g>
<g>
</g>
<g>
</g>
<g>
</g>
<g>
</g>
<g>
</g>
<g>
</g>
<g>
</g>
<g>
</g>
<g>
</g>
<g>
</g>
<g>
</g>
<g>
</g>
<g>
</g>
<g>
</g>
</svg>
