<?xml version="1.0" encoding="iso-8859-1"?>
<!-- Generator: Adobe Illustrator 19.0.0, SVG Export Plug-In . SVG Version: 6.00 Build 0)  -->
<svg xmlns="http://www.w3.org/2000/svg" xmlns:xlink="http://www.w3.org/1999/xlink" version="1.1" id="Layer_1" x="0px" y="0px" viewBox="0 0 511.997 511.997" style="enable-background:new 0 0 511.997 511.997;" xml:space="preserve">
<g>
	<g>
		<path d="M473.52,232.213l9.794-9.794c18.496-18.496,28.683-43.087,28.681-69.246c-0.001-26.157-10.19-50.751-28.691-69.25    l-55.227-55.227C389.851-9.532,327.862-9.596,289.581,28.688l-9.794,9.794l-17.139-17.14c-7.74-7.74-20.292-7.74-28.034,0    l-55.236,55.236c-7.736,7.734-7.742,20.295,0,28.034l17.139,17.139l-84.364,84.364l-17.139-17.139    c-7.74-7.74-20.292-7.74-28.034,0l-55.227,55.227c-7.736,7.734-7.742,20.295,0,28.034l17.139,17.138l-15.477,15.475    c-17.883,17.884-17.887,46.982-0.008,64.86L142.289,498.59c17.888,17.888,46.986,17.866,64.861-0.009l15.474-15.475l17.138,17.139    c7.734,7.736,20.295,7.742,28.034,0l55.227-55.227c7.742-7.74,7.742-20.292,0-28.034l-17.139-17.139l84.364-84.364l17.139,17.139    c7.734,7.736,20.295,7.742,28.034,0l55.236-55.236c7.742-7.74,7.742-20.292,0-28.034L473.52,232.213z M248.632,63.393    l15.457,15.455l-27.203,27.203L221.43,90.595L248.632,63.393z M80.998,231.025l15.457,15.455l-27.193,27.195L53.805,258.22    L80.998,231.025z M196.273,428.723c-6.955,6.955-7.847,18.289-1.582,26.251l-15.572,15.574c-2.428,2.428-6.372,2.433-8.795,0.011    L41.442,341.676c-2.421-2.422-2.417-6.367,0.009-8.794l15.576-15.574c7.805,6.14,19.156,5.513,26.251-1.582l13.596-13.596    l42.478,42.478c-10.549,10.548-8.771,22.567-1.652,29.687c7.157,7.155,19.144,8.89,29.686-1.652l42.483,42.483L196.273,428.723z     M253.781,458.196l-15.455-15.457l27.193-27.193l15.455,15.457L253.781,458.196z M363.899,261.098    c-7.131,7.131-7.689,18.484-1.582,26.251l-84.565,84.565c-7.883-6.18-19.16-5.511-26.25,1.581l-13.597,13.597    c-3.049-3.049-110.03-110.03-112.997-112.997l13.597-13.597c7.131-7.128,7.713-18.429,1.581-26.25l84.565-84.565    c7.817,6.144,19.17,5.499,26.251-1.582l13.605-13.605l42.478,42.478c-10.548,10.548-8.772,22.567-1.652,29.688    c7.159,7.156,19.145,8.889,29.687-1.653l42.483,42.483L363.899,261.098z M421.406,290.571l-15.455-15.457l27.202-27.203    l15.455,15.457L421.406,290.571z M455.281,194.386l-9.893,9.893c-7.837-6.164-19.176-5.494-26.251,1.582l-13.597,13.597    c-13.719-13.719-99.226-99.226-112.997-112.997l13.597-13.597c7.105-7.105,7.706-18.462,1.582-26.251l9.893-9.893    c22.754-22.754,59.641-22.777,82.43,0.009l55.227,55.227C478.049,134.737,478.067,171.597,455.281,194.386z"/>
	</g>
</g>
<g>
</g>
<g>
</g>
<g>
</g>
<g>
</g>
<g>
</g>
<g>
</g>
<g>
</g>
<g>
</g>
<g>
</g>
<g>
</g>
<g>
</g>
<g>
</g>
<g>
</g>
<g>
</g>
<g>
</g>
</svg>
