<?xml version="1.0" encoding="iso-8859-1"?>
<!-- Generator: Adobe Illustrator 19.0.0, SVG Export Plug-In . SVG Version: 6.00 Build 0)  -->
<svg xmlns="http://www.w3.org/2000/svg" xmlns:xlink="http://www.w3.org/1999/xlink" version="1.1" id="Layer_1" x="0px" y="0px" viewBox="0 0 512.001 512.001" style="enable-background:new 0 0 512.001 512.001;" xml:space="preserve">
<g>
	<g>
		<path d="M256,0C148.731,0,61.463,87.269,61.463,194.538c0,2.941,0.806,6.011,2.372,8.682    c32.937,55.754,160.881,272.334,177.505,300.465c6.655,11.156,22.803,11.037,29.356-0.054l177.471-300.411    c1.494-2.534,2.371-5.627,2.371-8.683C450.538,87.269,363.268,0,256,0z M100.728,198.559c23.674-14.719,59.118-13.242,80.446,4.74    l38.822,197.149L100.728,198.559z M256,406.613L215.5,200.944c22.611-16.517,58.378-16.521,80.999,0L256,406.613z     M292.005,400.449l38.822-197.149c21.359-18.009,56.802-19.436,80.446-4.74L292.005,400.449z M315.156,172.326    c-34.068-23.784-84.025-23.94-118.313,0c-27.733-19.361-66.012-23.084-97.824-10.833C114.294,88.846,178.88,34.134,256,34.134    s141.706,54.714,156.981,127.36C381.039,149.193,342.789,153.034,315.156,172.326z"/>
	</g>
</g>
<g>
</g>
<g>
</g>
<g>
</g>
<g>
</g>
<g>
</g>
<g>
</g>
<g>
</g>
<g>
</g>
<g>
</g>
<g>
</g>
<g>
</g>
<g>
</g>
<g>
</g>
<g>
</g>
<g>
</g>
</svg>
