<?xml version="1.0" encoding="iso-8859-1"?>
<!-- Generator: Adobe Illustrator 19.0.0, SVG Export Plug-In . SVG Version: 6.00 Build 0)  -->
<svg xmlns="http://www.w3.org/2000/svg" xmlns:xlink="http://www.w3.org/1999/xlink" version="1.1" id="Layer_1" x="0px" y="0px" viewBox="0 0 511.999 511.999" style="enable-background:new 0 0 511.999 511.999;" xml:space="preserve">
<g>
	<g>
		<path d="M493.02,267.797L284.633,99.048c-16.591-13.436-40.674-13.436-57.265,0L18.981,267.797C6.918,277.564,0,292.067,0,307.587    v61.581c0,12.265,12.569,20.496,23.782,15.69l123.613-52.912L190.85,347.3l-29.792,49.914    c-6.781,11.36,1.424,25.814,14.655,25.814h160.58c13.229,0,21.437-14.453,14.655-25.814L321.152,347.3l43.451-15.351    l123.613,52.912c11.237,4.809,23.782-3.436,23.782-15.69V307.59C512,292.067,505.082,277.564,493.02,267.797z M205.776,388.893    l7.007-11.739h86.439l7.008,11.739H205.776z M193.729,312.114l24.343-10.42l-9.375,15.708L193.729,312.114z M233.157,343.019    l22.845-38.273l22.846,38.273H233.157z M303.307,317.401l-9.375-15.706l24.34,10.419L303.307,317.401z M477.866,343.298    L283.14,259.946c-16.952-7.255-36.857-7.458-54.278,0L34.134,343.298v-35.711c0-5.174,2.306-10.008,6.327-13.263l208.387-168.75    c4.145-3.355,10.16-3.355,14.304,0l208.387,168.75c4.02,3.255,6.327,8.09,6.327,13.263V343.298z"/>
	</g>
</g>
<g>
</g>
<g>
</g>
<g>
</g>
<g>
</g>
<g>
</g>
<g>
</g>
<g>
</g>
<g>
</g>
<g>
</g>
<g>
</g>
<g>
</g>
<g>
</g>
<g>
</g>
<g>
</g>
<g>
</g>
</svg>
