<?xml version="1.0" encoding="iso-8859-1"?>
<!-- Generator: Adobe Illustrator 19.0.0, SVG Export Plug-In . SVG Version: 6.00 Build 0)  -->
<svg xmlns="http://www.w3.org/2000/svg" xmlns:xlink="http://www.w3.org/1999/xlink" version="1.1" id="Layer_1" x="0px" y="0px" viewBox="0 0 512 512" style="enable-background:new 0 0 512 512;" xml:space="preserve">
<g>
	<g>
		<path d="M493.268,354.108h-6.244V243.512c0-127.351-103.629-231.024-231.024-231.024c-127.043,0-231.024,103.322-231.024,231.024    v110.596h-6.244C8.387,354.108,0,362.495,0,372.84v107.941c0,10.345,8.387,18.732,18.732,18.732h474.537    c10.345,0,18.732-8.387,18.732-18.732V372.838C512,362.494,503.613,354.108,493.268,354.108z M449.561,243.512v110.596H386.68    c0-254.137,0.793-240.596-2.099-255.141C424.422,134.445,449.561,186.094,449.561,243.512z M162.775,120.228    c0-26.108,14.184-49.694,37.125-61.976c36.449-11.059,75.66-11.082,112.182-0.005c22.949,12.281,37.136,35.87,37.136,61.982    v233.879H162.775V120.228z M62.439,243.512c0-57.413,25.135-109.059,64.969-144.538c-2.89,14.541-2.097,1.048-2.097,255.132    H62.439V243.512z M474.537,462.049H37.463V391.57c3.144,0,431.347,0,437.073,0V462.049z"/>
	</g>
</g>
<g>
	<g>
		<path d="M285.57,408.078h-59.14c-10.345,0-18.732,8.387-18.732,18.732s8.387,18.732,18.732,18.732h59.14    c10.345,0,18.732-8.387,18.732-18.732S295.915,408.078,285.57,408.078z"/>
	</g>
</g>
<g>
</g>
<g>
</g>
<g>
</g>
<g>
</g>
<g>
</g>
<g>
</g>
<g>
</g>
<g>
</g>
<g>
</g>
<g>
</g>
<g>
</g>
<g>
</g>
<g>
</g>
<g>
</g>
<g>
</g>
</svg>
