<?xml version="1.0" encoding="iso-8859-1"?>
<!-- Generator: Adobe Illustrator 19.0.0, SVG Export Plug-In . SVG Version: 6.00 Build 0)  -->
<svg xmlns="http://www.w3.org/2000/svg" xmlns:xlink="http://www.w3.org/1999/xlink" version="1.1" id="Layer_1" x="0px" y="0px" viewBox="0 0 512 512" style="enable-background:new 0 0 512 512;" xml:space="preserve">
<g>
	<g>
		<path d="M512,85.333c0-21.958-17.864-39.822-39.822-39.822H39.822C17.864,45.511,0,63.375,0,85.333v63.962    c0,8.456,2.658,16.3,7.17,22.756C2.658,178.507,0,186.35,0,194.807v63.964c0,21.958,17.864,39.822,39.822,39.822h283.06    c0,12.285,0,145.932,0,150.83c0,9.425,7.641,17.067,17.067,17.067s17.067-7.641,17.067-17.067v-23.811h20.604v23.811    c0,9.425,7.641,17.067,17.067,17.067s17.067-7.641,17.067-17.067v-23.811h20.603v23.811c0,9.425,7.641,17.067,17.067,17.067    s17.067-7.641,17.067-17.067c0-5.061,0-138.889,0-150.83h5.689c21.958,0,39.822-17.864,39.822-39.822v-63.964    c0-8.456-2.658-16.3-7.17-22.756c4.512-6.456,7.17-14.3,7.17-22.756V85.333z M432.356,391.477h-75.34v-92.886h75.34V391.477z     M477.867,209.721h-73.023c-9.425,0-17.067,7.641-17.067,17.067s7.641,17.067,17.067,17.067h73.023v14.915    c0,3.137-2.552,5.69-5.689,5.69c-17.361,0-411.274,0-432.356,0c-3.137,0-5.689-2.552-5.689-5.689v-63.964    c0-3.137,2.552-5.689,5.689-5.689h432.356c3.137,0,5.689,2.552,5.689,5.689V209.721z M477.867,149.296    c0,3.137-2.552,5.689-5.689,5.689H39.822c-3.137,0-5.689-2.552-5.689-5.689v-14.914h73.023c9.425,0,17.067-7.641,17.067-17.067    s-7.641-17.067-17.067-17.067H34.133V85.333c0-3.137,2.552-5.689,5.689-5.689h432.356c3.137,0,5.689,2.552,5.689,5.689V149.296z"/>
	</g>
</g>
<g>
</g>
<g>
</g>
<g>
</g>
<g>
</g>
<g>
</g>
<g>
</g>
<g>
</g>
<g>
</g>
<g>
</g>
<g>
</g>
<g>
</g>
<g>
</g>
<g>
</g>
<g>
</g>
<g>
</g>
</svg>
