<?xml version="1.0" encoding="iso-8859-1"?>
<!-- Generator: Adobe Illustrator 19.0.0, SVG Export Plug-In . SVG Version: 6.00 Build 0)  -->
<svg xmlns="http://www.w3.org/2000/svg" xmlns:xlink="http://www.w3.org/1999/xlink" version="1.1" id="Layer_1" x="0px" y="0px" viewBox="0 0 512 512" style="enable-background:new 0 0 512 512;" xml:space="preserve">
<g>
	<g>
		<path d="M493.268,354.108h-6.244V243.512c0-127.367-103.633-231.024-231.024-231.024c-127.409,0-231.024,103.675-231.024,231.024    v110.596h-6.244C8.387,354.108,0,362.495,0,372.84v107.941c0,10.345,8.387,18.732,18.732,18.732h474.537    c10.345,0,18.732-8.387,18.732-18.732V372.838C512,362.494,503.613,354.108,493.268,354.108z M256,49.951    c64.31,0,121.384,31.534,156.602,79.942l-5.551-4.206c-6.69-5.069-15.936-5.07-22.625,0.001l-58.557,44.369l-58.558-44.369    c-6.687-5.071-15.937-5.071-22.624,0l-58.558,44.369l-58.557-44.369c-6.692-5.07-15.938-5.071-22.625-0.001l-5.551,4.206    C134.616,81.484,191.69,49.951,256,49.951z M67.068,201.392l49.193-37.274l58.557,44.37c6.69,5.071,15.937,5.071,22.627,0    L256,164.118l58.557,44.37c6.688,5.069,15.937,5.071,22.627,0l58.557-44.37l49.193,37.275c5.533,24.835,4.629,41.265,4.629,67.267    l-42.51-32.21c-6.69-5.069-15.934-5.069-22.624,0l-58.558,44.37l-58.558-44.37c-6.69-5.069-15.934-5.069-22.624,0l-58.558,44.37    l-58.558-44.37c-6.69-5.069-15.934-5.069-22.624,0l-42.51,32.21C62.439,242.802,61.522,226.281,67.068,201.392z M449.561,315.664    v38.442H62.439v-38.442l53.822-40.783l58.558,44.37c6.69,5.069,15.934,5.069,22.624,0L256,274.882l58.558,44.37    c6.69,5.069,15.934,5.069,22.624,0l58.557-44.37L449.561,315.664z M86.916,462.049H37.463v-70.477c10.575,0-7.737,0,49.453,0    V462.049z M387.62,391.571v70.477H124.38V391.57h263.24V391.571z M474.537,462.049h-49.453V391.57c57.23,0,38.87,0,49.453,0    V462.049z"/>
	</g>
</g>
<g>
</g>
<g>
</g>
<g>
</g>
<g>
</g>
<g>
</g>
<g>
</g>
<g>
</g>
<g>
</g>
<g>
</g>
<g>
</g>
<g>
</g>
<g>
</g>
<g>
</g>
<g>
</g>
<g>
</g>
</svg>
