<?xml version="1.0" encoding="iso-8859-1"?>
<!-- Generator: Adobe Illustrator 19.0.0, SVG Export Plug-In . SVG Version: 6.00 Build 0)  -->
<svg xmlns="http://www.w3.org/2000/svg" xmlns:xlink="http://www.w3.org/1999/xlink" version="1.1" id="Layer_1" x="0px" y="0px" viewBox="0 0 512 512" style="enable-background:new 0 0 512 512;" xml:space="preserve">
<g>
	<g>
		<path d="M256,0C148.736,0,61.468,87.266,61.468,194.532c0,4.229,1.609,8.375,4.459,11.501c0.008,0.009,0.015,0.018,0.023,0.027    l151.277,165.169h-14.545c-9.425,0-17.067,7.641-17.067,17.067v106.638c0,9.425,7.641,17.067,17.067,17.067H309.32    c9.425,0,17.067-7.641,17.067-17.067V388.294c0-9.425-7.641-17.067-17.067-17.067h-14.545l151.277-165.169    c0.007-0.008,0.014-0.018,0.022-0.026c2.768-3.036,4.459-7.183,4.459-11.501C450.532,87.266,363.264,0,256,0z M256,34.133    c10.66,0,35.697,41.804,41.093,128.346c-25.476-10.58-55.949-10.899-82.187-0.001C220.198,77.646,244.784,34.133,256,34.133z     M295.558,200.267L256,329.844l-39.559-129.577C238.553,184.802,272.998,184.49,295.558,200.267z M206.599,41.924    c-10.93,23.05-22.603,63.128-25.933,121.349c-25.453-11.187-55.768-11.75-81.641-1.785    C110.886,105.076,152.486,59.484,206.599,41.924z M103.755,196.799c23.816-12.941,57.71-10.71,78.096,7.068l35.81,117.299    L103.755,196.799z M292.252,477.867h-72.505v-72.506h72.505V477.867z M294.339,321.166l35.81-117.299    c20.366-17.762,54.253-20.021,78.096-7.067L294.339,321.166z M331.335,163.272c-3.329-58.202-14.999-98.287-25.933-121.347    c54.113,17.56,95.713,63.152,107.575,119.565C387.177,151.555,356.87,152.049,331.335,163.272z"/>
	</g>
</g>
<g>
</g>
<g>
</g>
<g>
</g>
<g>
</g>
<g>
</g>
<g>
</g>
<g>
</g>
<g>
</g>
<g>
</g>
<g>
</g>
<g>
</g>
<g>
</g>
<g>
</g>
<g>
</g>
<g>
</g>
</svg>
