<?xml version="1.0" encoding="iso-8859-1"?>
<!-- Generator: Adobe Illustrator 19.0.0, SVG Export Plug-In . SVG Version: 6.00 Build 0)  -->
<svg xmlns="http://www.w3.org/2000/svg" xmlns:xlink="http://www.w3.org/1999/xlink" version="1.1" id="Layer_1" x="0px" y="0px" viewBox="0 0 512 512" style="enable-background:new 0 0 512 512;" xml:space="preserve">
<g>
	<g>
		<path d="M496.184,348.451V51.435c0-4.913-2.012-9.771-5.49-13.249l-24.792-24.792c-7.247-7.248-18.969-7.325-26.313-0.176    l-89.143,86.8l-12.007-12.007c-7.314-7.314-19.175-7.314-26.491,0c-7.315,7.314-7.315,19.175,0,26.491l11.654,11.654    l-86.67,84.393l-10.515-10.515c-7.314-7.314-19.175-7.314-26.491,0s-7.315,19.175,0,26.491l10.163,10.163l-77.766,75.721    c-1.226-0.251-2.483-0.383-3.754-0.383c-4.968,0-9.732,1.973-13.245,5.487L5.484,427.349c-7.31,7.308-7.314,19.177,0,26.491    l44.767,44.767c7.315,7.315,19.175,7.315,26.491,0l59.839-59.839c2.168,3.719,4.822,7.187,7.946,10.311    c19.687,19.689,51.549,19.69,71.239,0.001c19.687-19.686,19.692-51.55,0.001-71.24c-5.326-5.326-11.635-9.31-18.517-11.789    L458.72,97.525v250.926c-21.117,13.631-21.001,44.508,0,58.063v22.139c0,8.086-6.579,14.662-14.663,14.662    s-14.662-6.577-14.662-14.662v-20.891c0-10.345-8.387-18.732-18.732-18.732c-10.345,0-18.732,8.387-18.732,18.732v20.891    c0,28.744,23.385,52.126,52.127,52.126c28.742,0,52.126-23.384,52.126-52.126v-22.14    C517.311,392.877,517.233,362.039,496.184,348.451z M63.496,458.871L45.22,440.595l83.346-83.347    c11.997,11.998,8.973,8.973,18.276,18.277L63.496,458.871z M189.277,422.587c-5.048,5.049-13.211,5.046-18.259,0.001    c-5.045-5.046-5.046-13.211,0-18.257c5.046-5.044,13.21-5.049,18.259,0.001C194.314,409.369,194.331,417.532,189.277,422.587z     M167.354,343.052l-6.316-6.316l240.278-233.959L167.354,343.052z"/>
	</g>
</g>
<g>
</g>
<g>
</g>
<g>
</g>
<g>
</g>
<g>
</g>
<g>
</g>
<g>
</g>
<g>
</g>
<g>
</g>
<g>
</g>
<g>
</g>
<g>
</g>
<g>
</g>
<g>
</g>
<g>
</g>
</svg>
