<?xml version="1.0" encoding="iso-8859-1"?>
<!-- Generator: Adobe Illustrator 19.0.0, SVG Export Plug-In . SVG Version: 6.00 Build 0)  -->
<svg xmlns="http://www.w3.org/2000/svg" xmlns:xlink="http://www.w3.org/1999/xlink" version="1.1" id="Layer_1" x="0px" y="0px" viewBox="0 0 512 512" style="enable-background:new 0 0 512 512;" xml:space="preserve">
<g>
	<g>
		<path d="M494.933,217.817h-33.085c-46.618-102.225-284.948-95.208-366.17-95.208c-9.425,0-17.067,7.641-17.067,17.067    s7.641,17.067,17.067,17.067h44.38v61.075H28.3c-0.167,0-0.336,0.002-0.503,0.008C12.41,218.17,0,230.795,0,246.262v46.015    c0,15.684,12.76,28.444,28.444,28.444h28.733c22.661,0,47.049,16.18,47.049,51.705c0,9.425,7.641,17.067,17.067,17.067h236.097    C442.73,389.494,512,320.023,512,234.884C512,225.459,504.359,217.817,494.933,217.817z M297.496,166.924    c74.771,12.774,108.339,34.935,123.262,50.893H297.496V166.924z M174.192,156.861c33.991,0.474,63.514,2.365,89.171,5.266v55.692    h-89.171V156.861z M468.411,281.65H272.16c-9.425,0-17.067,7.641-17.067,17.067s7.641,17.067,17.067,17.067h174.42    c-22.056,24.295-53.869,39.578-89.189,39.578H136.999c-3.755-22.642-14.594-37.535-23.972-46.537    c-14.936-14.338-34.769-22.234-55.848-22.234H34.133v-34.639c5.352,0,436.983,0,442.528,0    C475.183,262.333,472.369,272.29,468.411,281.65z"/>
	</g>
</g>
<g>
</g>
<g>
</g>
<g>
</g>
<g>
</g>
<g>
</g>
<g>
</g>
<g>
</g>
<g>
</g>
<g>
</g>
<g>
</g>
<g>
</g>
<g>
</g>
<g>
</g>
<g>
</g>
<g>
</g>
</svg>
