<?xml version="1.0" encoding="iso-8859-1"?>
<!-- Generator: Adobe Illustrator 19.0.0, SVG Export Plug-In . SVG Version: 6.00 Build 0)  -->
<svg xmlns="http://www.w3.org/2000/svg" xmlns:xlink="http://www.w3.org/1999/xlink" version="1.1" id="Layer_1" x="0px" y="0px" viewBox="0 0 512.001 512.001" style="enable-background:new 0 0 512.001 512.001;" xml:space="preserve">
<g>
	<g>
		<path d="M511.457,418.331l-51.733-201.488c-1.481-5.768-5.863-10.349-11.562-12.083l-75.55-22.992l-11.948-94.478    c-1.341-10.614-12.009-17.36-22.134-14.112l-157.842,50.525c-5.667,1.815-9.979,6.449-11.382,12.231L140.35,255.298    l-83.414,18.563c-5.867,1.305-10.616,5.603-12.499,11.311L0.87,417.23c-3.636,11.022,4.583,22.412,16.207,22.412    c11.702,0,465.102,0,477.85,0C506.062,439.642,514.228,429.126,511.457,418.331z M195.088,405.511v-0.001l5.286-28.145    l68.847-34.47l92.227,23.057l7.91,39.559H195.088z M404.165,405.513v-0.002L392.8,348.668    c-1.294-6.467-6.197-11.611-12.596-13.209L271.369,308.25c-3.957-0.99-8.134-0.529-11.78,1.296l-82.067,41.089    c-4.769,2.389-8.147,6.868-9.131,12.111l-8.031,42.765H40.678l33.134-100.436c3.219-0.717,133.614-29.737,136.865-30.461    c9.2-2.048,14.999-11.165,12.951-20.366c-2.048-9.2-11.166-15.001-20.366-12.951l-25.787,5.74l22.742-93.745l129.16-41.344    l10.758,85.072c0.844,6.673,5.528,12.227,11.962,14.186l76.951,23.418l43.876,170.887H404.165z"/>
	</g>
</g>
<g>
</g>
<g>
</g>
<g>
</g>
<g>
</g>
<g>
</g>
<g>
</g>
<g>
</g>
<g>
</g>
<g>
</g>
<g>
</g>
<g>
</g>
<g>
</g>
<g>
</g>
<g>
</g>
<g>
</g>
</svg>
