<?xml version="1.0" encoding="iso-8859-1"?>
<!-- Generator: Adobe Illustrator 19.0.0, SVG Export Plug-In . SVG Version: 6.00 Build 0)  -->
<svg xmlns="http://www.w3.org/2000/svg" xmlns:xlink="http://www.w3.org/1999/xlink" version="1.1" id="Layer_1" x="0px" y="0px" viewBox="0 0 512.001 512.001" style="enable-background:new 0 0 512.001 512.001;" xml:space="preserve">
<g>
	<g>
		<path d="M494.082,35.009H17.918C8.023,35.009,0,43.031,0,52.927v406.147c0,9.896,8.023,17.918,17.918,17.918    c6.035,0,166.603,0,172.634,0c7.73,0,14.589-4.956,17.014-12.297l48.434-146.591l48.434,146.591    c2.425,7.34,9.284,12.297,17.014,12.297c6.025,0,166.6,0,172.634,0c9.896,0,17.918-8.023,17.918-17.918V52.927    C512,43.03,503.977,35.009,494.082,35.009z M35.837,441.155v-72.397l51.089,72.397H35.837z M334.398,441.156l-61.383-185.787    c-5.399-16.339-28.624-16.355-34.028,0l-61.386,185.786h-46.814l-94.95-134.552V130.198h183.829l-18.505,24.116    c-6.024,7.851-4.544,19.099,3.309,25.123c7.847,6.023,19.098,4.544,25.123-3.309l26.407-34.415l26.407,34.415    c6.028,7.854,17.277,9.331,25.123,3.309c7.852-6.024,9.333-17.272,3.309-25.123l-18.505-24.116h183.829v176.405l-94.95,134.553    H334.398z M476.163,441.156h-51.089l51.089-72.397V441.156z M476.163,94.362H35.837V70.845h440.327V94.362z"/>
	</g>
</g>
<g>
</g>
<g>
</g>
<g>
</g>
<g>
</g>
<g>
</g>
<g>
</g>
<g>
</g>
<g>
</g>
<g>
</g>
<g>
</g>
<g>
</g>
<g>
</g>
<g>
</g>
<g>
</g>
<g>
</g>
</svg>
