<?xml version="1.0" encoding="iso-8859-1"?>
<!-- Generator: Adobe Illustrator 19.0.0, SVG Export Plug-In . SVG Version: 6.00 Build 0)  -->
<svg xmlns="http://www.w3.org/2000/svg" xmlns:xlink="http://www.w3.org/1999/xlink" version="1.1" id="Layer_1" x="0px" y="0px" viewBox="0 0 512.001 512.001" style="enable-background:new 0 0 512.001 512.001;" xml:space="preserve">
<g>
	<g>
		<path d="M276.82,219.916h-41.696c-10.874,0-19.69,8.816-19.69,19.69c0,10.874,8.815,19.69,19.69,19.69h41.696    c10.874,0,19.69-8.816,19.69-19.69C296.511,228.731,287.695,219.916,276.82,219.916z"/>
	</g>
</g>
<g>
	<g>
		<path d="M135.728,195.593c-24.269,0-44.014,19.744-44.014,44.013s19.745,44.013,44.014,44.013s44.013-19.744,44.013-44.013    C179.741,215.337,159.997,195.593,135.728,195.593z M135.728,244.238c-2.554,0-4.634-2.078-4.634-4.632s2.078-4.632,4.634-4.632    s4.632,2.078,4.632,4.632S138.283,244.238,135.728,244.238z"/>
	</g>
</g>
<g>
	<g>
		<path d="M376.209,195.593c-24.269,0-44.013,19.744-44.013,44.013s19.743,44.013,44.013,44.013    c24.269,0,44.013-19.744,44.013-44.013S400.477,195.593,376.209,195.593z M376.209,244.238c-2.554,0-4.632-2.078-4.632-4.632    c0-2.555,2.077-4.633,4.632-4.633c2.555,0,4.632,2.078,4.632,4.633C380.841,242.16,378.763,244.238,376.209,244.238z"/>
	</g>
</g>
<g>
	<g>
		<path d="M492.255,298.689h-27.43l40.767-37.249c4.538-4.147,6.797-10.081,6.355-16.004v-84.605c0-10.874-8.816-19.69-19.69-19.69    H334.882l34.992-101.733h49.19c10.874,0,19.69-8.816,19.69-19.69c0-10.874-8.816-19.69-19.69-19.69h-63.24    c-8.406,0-15.886,5.336-18.62,13.286l-17.858,51.918H192.598L174.74,13.314c-2.734-7.95-10.214-13.286-18.62-13.286H92.881    c-10.874,0-19.69,8.816-19.69,19.69c0,10.874,8.816,19.69,19.69,19.69h49.189l34.992,101.733H19.69    c-10.874,0-19.69,8.816-19.69,19.69v86.072c0,6.038,2.734,11.443,7.029,15.054l40.199,36.73H19.69    c-10.874,0-19.69,8.816-19.69,19.69v173.902c0,10.874,8.816,19.69,19.69,19.69h120.868c10.874,0,19.69-8.816,19.69-19.69V338.07    h191.449v154.212c0,10.874,8.816,19.69,19.69,19.69h120.868c10.874,0,19.69-8.816,19.69-19.69V318.38    C511.945,307.505,503.129,298.689,492.255,298.689z M305.802,104.612l-12.565,36.529h-74.529l-12.565-36.529H305.802z     M120.868,359.102h-7.407c-10.874,0-19.69,8.816-19.69,19.69c0,10.874,8.816,19.69,19.69,19.69h7.407v13.7h-7.407    c-10.874,0-19.69,8.816-19.69,19.69c0,10.874,8.816,19.69,19.69,19.69h7.407v21.03H39.38v-21.03h7.407    c10.874,0,19.69-8.816,19.69-19.69c0-10.874-8.816-19.69-19.69-19.69H39.38v-13.7h7.407c10.874,0,19.69-8.816,19.69-19.69    c0-10.874-8.816-19.69-19.69-19.69H39.38v-21.03c8.093,0,73.383,0,81.487,0V359.102z M105.61,298.689l-66.23-60.514v-57.653    c9.5,0,424.388,0,433.184,0v57.751l-66.122,60.416C394.898,298.689,129.92,298.689,105.61,298.689z M472.565,359.102h-7.409    c-10.874,0-19.69,8.816-19.69,19.69c0,10.874,8.816,19.69,19.69,19.69h7.409v13.7h-7.409c-10.874,0-19.69,8.816-19.69,19.69    c0,10.874,8.816,19.69,19.69,19.69h7.409v21.03h-81.487v-21.03h7.407c10.874,0,19.69-8.816,19.69-19.69    c0-10.874-8.816-19.69-19.69-19.69h-7.407v-13.7h7.407c10.874,0,19.69-8.816,19.69-19.69c0-10.874-8.816-19.69-19.69-19.69h-7.407    v-21.03c9.068,0,73.292,0,81.487,0V359.102z"/>
	</g>
</g>
<g>
</g>
<g>
</g>
<g>
</g>
<g>
</g>
<g>
</g>
<g>
</g>
<g>
</g>
<g>
</g>
<g>
</g>
<g>
</g>
<g>
</g>
<g>
</g>
<g>
</g>
<g>
</g>
<g>
</g>
</svg>
