<?xml version="1.0" encoding="iso-8859-1"?>
<!-- Generator: Adobe Illustrator 19.0.0, SVG Export Plug-In . SVG Version: 6.00 Build 0)  -->
<svg xmlns="http://www.w3.org/2000/svg" xmlns:xlink="http://www.w3.org/1999/xlink" version="1.1" id="Layer_1" x="0px" y="0px" viewBox="0 0 511.999 511.999" style="enable-background:new 0 0 511.999 511.999;" xml:space="preserve">
<g>
	<g>
		<path d="M457.523,255.902L373.338,82.913c-6.509-13.378-25.615-13.364-32.12-0.001l-59.03,121.283l-94.513-194.17    c-6.495-13.345-25.603-13.39-32.12,0l-99.4,204.236c-38.467,79.015,12.048,171.564,97.603,183.38v96.497    c0,9.864,7.997,17.861,17.861,17.861c9.864,0,17.861-7.997,17.861-17.861V397.65c27.525-3.781,52.67-16.242,72.189-35.55    c16.798,27.924,45.162,47.369,77.742,52.636v79.401c0,9.864,7.997,17.861,17.861,17.861c9.864,0,17.861-7.997,17.861-17.861    v-79.388C447.779,403.03,490.738,324.137,457.523,255.902z M189.481,361.456v-41.391l33.824-69.494    c4.316-8.87,0.626-19.559-8.243-23.877c-8.869-4.318-19.559-0.626-23.877,8.244l-19.565,40.198l-19.565-40.198    c-4.316-8.869-15.006-12.558-23.877-8.244c-8.87,4.318-12.56,15.007-8.243,23.877l33.824,69.494v41.384    c-58.919-11.411-92.418-76.228-65.484-131.552l83.341-171.242l83.357,171.249C282.198,285.773,247.788,350.211,189.481,361.456z     M375.135,378.323v-30.99l28.372-58.293c4.316-8.87,0.626-19.559-8.243-23.877c-8.867-4.318-19.559-0.626-23.877,8.244    l-14.114,28.998l-14.115-28.998c-4.318-8.872-15.01-12.559-23.877-8.244c-8.87,4.318-12.56,15.008-8.243,23.877l28.373,58.293    v30.999c-24.747-5.997-45.17-24.207-53.767-48.789c12.353-23.787,17.135-50.957,13.139-77.819l58.493-120.182l68.127,139.99    C447.019,315.94,421.366,367.143,375.135,378.323z"/>
	</g>
</g>
<g>
</g>
<g>
</g>
<g>
</g>
<g>
</g>
<g>
</g>
<g>
</g>
<g>
</g>
<g>
</g>
<g>
</g>
<g>
</g>
<g>
</g>
<g>
</g>
<g>
</g>
<g>
</g>
<g>
</g>
</svg>
