<?xml version="1.0" encoding="iso-8859-1"?>
<!-- Generator: Adobe Illustrator 19.0.0, SVG Export Plug-In . SVG Version: 6.00 Build 0)  -->
<svg xmlns="http://www.w3.org/2000/svg" xmlns:xlink="http://www.w3.org/1999/xlink" version="1.1" id="Layer_1" x="0px" y="0px" viewBox="0 0 512.001 512.001" style="enable-background:new 0 0 512.001 512.001;" xml:space="preserve">
<g>
	<g>
		<path d="M501.882,63.479l-53.36-53.361c-6.658-6.659-17.472-6.665-24.136,0l-53.361,53.36    c-17.31,17.311-20.514,43.093-10.149,63.51l-1.58,1.58C339.195,80.879,307.83,38.064,266.93,3.959    c-6.331-5.278-15.528-5.278-21.86,0c-75.046,62.579-118.086,154.443-118.086,252.042c0,31.464,4.498,62.323,13.075,91.806    l-13.07,13.07c-20.389-10.352-46.176-7.186-63.51,10.15l-53.361,53.36c-6.665,6.664-6.665,17.471,0,24.136l53.36,53.36    c6.658,6.659,17.472,6.665,24.136,0l53.361-53.36c17.31-17.311,20.514-43.093,10.149-63.51l1.58-1.58    c20.101,47.689,51.466,90.505,92.366,124.61c6.333,5.279,15.528,5.278,21.86,0c75.045-62.579,118.086-154.443,118.086-252.041    c0-31.464-4.498-62.323-13.075-91.806l13.07-13.07c20.389,10.352,46.176,7.186,63.51-10.15l53.36-53.36    C508.547,80.95,508.547,70.143,501.882,63.479z M116.839,424.387l-41.292,41.292l-29.224-29.225l41.292-41.292    c8.076-8.077,21.147-8.077,29.224,0C124.915,403.239,124.915,416.308,116.839,424.387z M161.118,256.001    c0-82.59,34.402-160.599,94.883-216.25c34.865,32.081,61.042,71.601,76.98,115.135l-21.065,21.065    c-2.175-6.922-8.641-11.944-16.283-11.944h-79.263c-9.425,0-17.067,7.641-17.067,17.067v107.491l-31.201,31.201    C163.51,299.037,161.118,277.68,161.118,256.001z M233.435,254.43v-56.291h45.13V209.3L233.435,254.43z M278.565,257.571v56.291    h-45.13v-11.16h0L278.565,257.571z M256.001,472.251c-34.865-32.081-61.042-71.601-76.98-115.135l21.065-21.065    c2.175,6.922,8.641,11.944,16.283,11.944h79.263c9.425,0,17.067-7.641,17.067-17.067V223.438l31.201-31.201    c4.59,20.727,6.984,42.084,6.984,63.765C350.883,338.591,316.482,416.6,256.001,472.251z M424.385,116.839    c-8.076,8.077-21.147,8.077-29.224,0c-8.076-8.077-8.076-21.147,0-29.225l41.292-41.292l29.224,29.225L424.385,116.839z"/>
	</g>
</g>
<g>
	<g>
		<path d="M277.044,108.508h-42.088c-9.425,0-17.067,7.641-17.067,17.067s7.641,17.067,17.067,17.067h42.088    c9.425,0,17.067-7.641,17.067-17.067S286.469,108.508,277.044,108.508z"/>
	</g>
</g>
<g>
	<g>
		<path d="M277.044,369.359h-42.088c-9.425,0-17.067,7.641-17.067,17.067s7.641,17.067,17.067,17.067h42.088    c9.425,0,17.067-7.641,17.067-17.067S286.47,369.359,277.044,369.359z"/>
	</g>
</g>
<g>
</g>
<g>
</g>
<g>
</g>
<g>
</g>
<g>
</g>
<g>
</g>
<g>
</g>
<g>
</g>
<g>
</g>
<g>
</g>
<g>
</g>
<g>
</g>
<g>
</g>
<g>
</g>
<g>
</g>
</svg>
