<?xml version="1.0" encoding="iso-8859-1"?>
<!-- Generator: Adobe Illustrator 19.0.0, SVG Export Plug-In . SVG Version: 6.00 Build 0)  -->
<svg xmlns="http://www.w3.org/2000/svg" xmlns:xlink="http://www.w3.org/1999/xlink" version="1.1" id="Layer_1" x="0px" y="0px" viewBox="0 0 512 512" style="enable-background:new 0 0 512 512;" xml:space="preserve">
<g>
	<g>
		<path d="M276.502,0h-41.003C131.706,0,45.511,61.079,45.511,167.231v39.058c0,9.425,7.641,17.067,17.067,17.067h34.216v10.553    c0,21.958,17.864,39.822,39.822,39.822h17.922l128.435,151.012c-0.44,1.516-0.688,3.113-0.688,4.77v65.422    c0,9.425,7.641,17.067,17.067,17.067h68.267c9.425,0,17.067-7.641,17.067-17.067v-65.421c0-6.935-4.144-12.891-10.083-15.561    v-140.22h0.782c21.958,0,39.822-17.864,39.822-39.822v-10.553h34.216c9.425,0,17.067-7.641,17.067-17.067v-39.059    C466.489,61.136,380.356,0,276.502,0z M292.369,383.103l-93.021-109.372h93.021V383.103z M350.552,477.867h-34.133v-31.288h34.133    V477.867z M326.502,412.446V273.731h13.966v138.714H326.502z M381.073,233.909c0,3.137-2.552,5.689-5.689,5.689    c-3.434,0-180.942,0-238.767,0c-3.137,0-5.689-2.552-5.689-5.689v-10.553h250.145V233.909z M432.356,189.223    c-10.233,0-343.788,0-352.711,0v-21.992c0-86.388,70.606-133.097,155.854-133.097h41.003c85.224,0,155.854,46.678,155.854,133.097    V189.223z"/>
	</g>
</g>
<g>
	<g>
		<path d="M369.165,132.208h-71.36c-9.425,0-17.067,7.641-17.067,17.067s7.641,17.067,17.067,17.067h71.36    c9.425,0,17.067-7.641,17.067-17.067S378.591,132.208,369.165,132.208z"/>
	</g>
</g>
<g>
	<g>
		<path d="M137.793,115.141c-14.116,0-25.6,11.485-25.6,25.6s11.484,25.6,25.6,25.6c14.116,0,25.6-11.485,25.6-25.6    S151.909,115.141,137.793,115.141z"/>
	</g>
</g>
<g>
	<g>
		<path d="M191.453,63.147c-14.116,0-25.6,11.485-25.6,25.6c0,14.115,11.484,25.6,25.6,25.6c14.116,0,25.6-11.485,25.6-25.6    C217.053,74.631,205.569,63.147,191.453,63.147z"/>
	</g>
</g>
<g>
</g>
<g>
</g>
<g>
</g>
<g>
</g>
<g>
</g>
<g>
</g>
<g>
</g>
<g>
</g>
<g>
</g>
<g>
</g>
<g>
</g>
<g>
</g>
<g>
</g>
<g>
</g>
<g>
</g>
</svg>
