<?xml version="1.0" encoding="iso-8859-1"?>
<!-- Generator: Adobe Illustrator 19.0.0, SVG Export Plug-In . SVG Version: 6.00 Build 0)  -->
<svg xmlns="http://www.w3.org/2000/svg" xmlns:xlink="http://www.w3.org/1999/xlink" version="1.1" id="Layer_1" x="0px" y="0px" viewBox="0 0 512 512" style="enable-background:new 0 0 512 512;" xml:space="preserve">
<g>
	<g>
		<path d="M506.794,165.569c-6.78-6.55-17.583-6.366-24.132,0.412l-40.479,41.885H69.817l-40.479-41.885    c-6.551-6.778-17.355-6.964-24.132-0.412c-6.778,6.55-6.962,17.354-0.412,24.132l45.511,47.093    C53.521,240.122,57.95,242,62.578,242h386.844c4.627,0,9.057-1.878,12.272-5.206l45.511-47.093    C513.756,182.923,513.571,172.119,506.794,165.569z"/>
	</g>
</g>
<g>
	<g>
		<path d="M148.541,260.204c-25.095,0-45.511,20.416-45.511,45.511s20.416,45.511,45.511,45.511s45.511-20.416,45.511-45.511    S173.635,260.204,148.541,260.204z M148.541,317.093c-6.274,0-11.378-5.104-11.378-11.378c0-6.274,5.104-11.378,11.378-11.378    s11.378,5.104,11.378,11.378C159.919,311.989,154.814,317.093,148.541,317.093z"/>
	</g>
</g>
<g>
	<g>
		<path d="M363.458,260.204c-25.095,0-45.511,20.416-45.511,45.511s20.416,45.511,45.511,45.511    c25.095,0,45.511-20.416,45.511-45.511S388.553,260.204,363.458,260.204z M363.458,317.093c-6.274,0-11.378-5.104-11.378-11.378    c0-6.274,5.104-11.378,11.378-11.378c6.274,0,11.378,5.104,11.378,11.378C374.836,311.989,369.732,317.093,363.458,317.093z"/>
	</g>
</g>
<g>
</g>
<g>
</g>
<g>
</g>
<g>
</g>
<g>
</g>
<g>
</g>
<g>
</g>
<g>
</g>
<g>
</g>
<g>
</g>
<g>
</g>
<g>
</g>
<g>
</g>
<g>
</g>
<g>
</g>
</svg>
