<?xml version="1.0" encoding="iso-8859-1"?>
<!-- Generator: Adobe Illustrator 19.0.0, SVG Export Plug-In . SVG Version: 6.00 Build 0)  -->
<svg xmlns="http://www.w3.org/2000/svg" xmlns:xlink="http://www.w3.org/1999/xlink" version="1.1" id="Layer_1" x="0px" y="0px" viewBox="0 0 512.001 512.001" style="enable-background:new 0 0 512.001 512.001;" xml:space="preserve">
<g>
	<g>
		<path d="M494.933,229.784h-28.445v-3.377c0-21.958-17.865-39.823-39.823-39.823h-5.737l-16.643-41.785    c-2.585-6.492-8.868-10.752-15.856-10.752H123.569c-6.988,0-13.27,4.26-15.856,10.752L91.07,186.584h-5.736    c-21.958,0-39.823,17.865-39.823,39.823v3.377H17.067C7.641,229.784,0,237.426,0,246.851v70.837    c0,9.425,7.641,17.067,17.067,17.067h28.445v3.377c0,21.958,17.865,39.823,39.823,39.823h113.786    c20.646,0,37.688-15.499,39.644-36.052l1.042-10.957c1.859-19.543,30.529-19.52,32.387,0l1.042,10.957    c1.956,20.553,18.998,36.052,39.644,36.052h113.786c21.958,0,39.823-17.864,39.823-39.823v-3.377h28.445    c9.425,0,17.067-7.641,17.067-17.067v-70.837C512,237.424,504.359,229.784,494.933,229.784z M45.512,300.62H34.134v-36.703h11.378    V300.62z M135.143,168.181h241.714l7.33,18.404H127.813L135.143,168.181z M432.354,338.13c0,3.137-2.552,5.689-5.689,5.689    H312.879c-2.949,0-5.384-2.214-5.664-5.15l-1.042-10.957c-5.761-60.551-94.595-60.478-100.348,0l-1.042,10.957    c-0.279,2.937-2.715,5.15-5.664,5.15H85.334c-3.137,0-5.689-2.552-5.689-5.689c0-12.845,0-98.985,0-111.723    c0-3.137,2.552-5.689,5.689-5.689c11.697,0,329.397,0,341.331,0c3.137,0,5.689,2.552,5.689,5.689    C432.354,239.252,432.354,325.392,432.354,338.13z M477.866,300.62h-11.378v-36.703h11.378V300.62z"/>
	</g>
</g>
<g>
</g>
<g>
</g>
<g>
</g>
<g>
</g>
<g>
</g>
<g>
</g>
<g>
</g>
<g>
</g>
<g>
</g>
<g>
</g>
<g>
</g>
<g>
</g>
<g>
</g>
<g>
</g>
<g>
</g>
</svg>
