<?xml version="1.0" encoding="iso-8859-1"?>
<!-- Generator: Adobe Illustrator 19.0.0, SVG Export Plug-In . SVG Version: 6.00 Build 0)  -->
<svg xmlns="http://www.w3.org/2000/svg" xmlns:xlink="http://www.w3.org/1999/xlink" version="1.1" id="Layer_1" x="0px" y="0px" viewBox="0 0 511.998 511.998" style="enable-background:new 0 0 511.998 511.998;" xml:space="preserve">
<g>
	<g>
		<path d="M451.973,166.967c-40.696-26.453-68.721-21.213-164.283-21.213c-17.787,0-32.414-14.471-32.414-32.414V79.833h13.132    c9.415,0,17.048-7.633,17.048-17.048c0-9.415-7.633-17.048-17.048-17.048H22.755c-9.415,0-17.048,7.633-17.048,17.048    c0,9.415,7.633,17.048,17.048,17.048h11.246C-7.033,342.046,0.553,269.701,0.553,349.334c0,9.415,7.633,17.048,17.048,17.048    h16.453c-5.505,9.723-8.665,20.942-8.665,32.891c0,36.938,30.052,66.989,66.989,66.989c31.047,0,57.222-21.234,64.783-49.94    h34.377c7.56,28.706,33.735,49.94,64.782,49.94s57.223-21.234,64.783-49.94h34.385c7.561,28.706,33.736,49.94,64.783,49.94    c36.938,0,66.988-30.052,66.988-66.989c0-11.949-3.16-23.167-8.665-32.891h16.354c9.415,0,17.048-7.633,17.048-17.048v-71.853    C512,195.303,440.111,159.257,451.973,166.967z M272.925,178.203l-32.029,32.029l-23.048-23.048l24.846-24.846    C251.421,170.357,261.971,175.715,272.925,178.203z M68.514,79.835h152.667v33.506c0,6.747,1.017,13.258,2.894,19.399    l-42.391,42.391c-6.658,6.658-6.658,17.452,0,24.11l47.158,47.158c6.654,6.654,17.453,6.657,24.11,0l66.545-66.546    c64.74,0,75.678-1.904,98.137,7.405l-63.662,90.6H37.525L68.514,79.835z M125.27,399.34    c-0.036,18.106-14.776,32.826-32.891,32.826c-18.137,0-32.893-14.756-32.893-32.893c0-18.108,14.708-32.843,32.805-32.891h0.175    c18.075,0.048,32.768,14.748,32.803,32.826c0,0.023-0.003,0.044-0.003,0.066S125.27,399.317,125.27,399.34z M191.54,382.225    h-34.377c-1.475-5.602-3.668-10.913-6.459-15.844H198C195.207,371.312,193.015,376.623,191.54,382.225z M256.322,432.165    c-18.137,0-32.892-14.755-32.892-32.892s14.755-32.892,32.892-32.892s32.892,14.755,32.892,32.892    S274.459,432.165,256.322,432.165z M355.489,382.225h-34.384c-1.475-5.602-3.668-10.913-6.46-15.844h47.303    C359.157,371.312,356.965,376.623,355.489,382.225z M420.275,432.165c-18.137,0-32.893-14.756-32.893-32.893    c0-18.108,14.709-32.843,32.805-32.891h0.175c18.096,0.048,32.804,14.783,32.804,32.891    C453.167,417.41,438.412,432.165,420.275,432.165z M477.904,332.285c-8.089,0-440.336,0-443.255,0v-20.333h328.179    c5.552,0,10.757-2.704,13.949-7.247l69.615-99.073c19.966,18.341,31.512,44.207,31.512,71.848V332.285z"/>
	</g>
</g>
<g>
</g>
<g>
</g>
<g>
</g>
<g>
</g>
<g>
</g>
<g>
</g>
<g>
</g>
<g>
</g>
<g>
</g>
<g>
</g>
<g>
</g>
<g>
</g>
<g>
</g>
<g>
</g>
<g>
</g>
</svg>
