<?xml version="1.0" encoding="iso-8859-1"?>
<!-- Generator: Adobe Illustrator 19.0.0, SVG Export Plug-In . SVG Version: 6.00 Build 0)  -->
<svg xmlns="http://www.w3.org/2000/svg" xmlns:xlink="http://www.w3.org/1999/xlink" version="1.1" id="Layer_1" x="0px" y="0px" viewBox="0 0 512.001 512.001" style="enable-background:new 0 0 512.001 512.001;" xml:space="preserve">
<g>
	<g>
		<path d="M464.765,487.466L274.979,97.535l35.528-72.996c4.124-8.475,0.599-18.689-7.877-22.815    c-8.475-4.123-18.689-0.6-22.815,7.877l-23.817,48.937L232.181,9.602c-4.124-8.475-14.339-12-22.815-7.877    c-8.475,4.124-12.001,14.339-7.877,22.815l35.528,72.996L47.233,487.466c-5.5,11.3,2.73,24.535,15.345,24.535H449.42    C461.988,512.001,470.286,498.808,464.765,487.466z M238.932,477.868H89.866l149.066-306.27V477.868z M273.065,477.868v-306.27    l149.067,306.27H273.065z"/>
	</g>
</g>
<g>
</g>
<g>
</g>
<g>
</g>
<g>
</g>
<g>
</g>
<g>
</g>
<g>
</g>
<g>
</g>
<g>
</g>
<g>
</g>
<g>
</g>
<g>
</g>
<g>
</g>
<g>
</g>
<g>
</g>
</svg>
