<?xml version="1.0" encoding="iso-8859-1"?>
<!-- Generator: Adobe Illustrator 19.0.0, SVG Export Plug-In . SVG Version: 6.00 Build 0)  -->
<svg xmlns="http://www.w3.org/2000/svg" xmlns:xlink="http://www.w3.org/1999/xlink" version="1.1" id="Layer_1" x="0px" y="0px" viewBox="0 0 511.999 511.999" style="enable-background:new 0 0 511.999 511.999;" xml:space="preserve">
<g>
	<g>
		<path d="M429.219,211.84l77.884-77.884c6.529-6.529,6.529-17.112,0-23.641l-77.884-77.884c-6.524-6.525-17.115-6.527-23.641,0    l-77.885,77.884c-24.314,24.313-27.216,61.083-10.434,88.316l-61.261,61.262l-61.278-61.278    c16.963-27.649,13.504-64.38-10.416-88.299L106.42,32.431c-6.524-6.525-17.115-6.527-23.641,0L4.896,110.315    c-6.529,6.528-6.529,17.112,0,23.641L82.78,211.84c24.315,24.314,61.084,27.215,88.318,10.432l61.261,61.261L86.392,429.501    l-2.783-2.783c-6.527-6.528-17.112-6.528-23.641,0c-6.529,6.529-6.529,17.112,0,23.641l29.207,29.207    c6.527,6.529,17.112,6.53,23.641,0c6.529-6.529,6.529-17.112,0-23.641l-2.783-2.783L256,307.175l145.967,145.967l-2.783,2.783    c-6.529,6.529-6.529,17.112,0,23.641c6.527,6.528,17.112,6.53,23.641,0l29.207-29.207c6.529-6.529,6.529-17.112,0-23.641    c-6.527-6.529-17.112-6.529-23.641,0l-2.783,2.783L279.64,283.534l61.261-61.261C368.134,239.056,404.904,236.155,429.219,211.84z     M169.782,173.676l-13.709-13.709c-6.527-6.529-17.112-6.529-23.641,0c-6.528,6.529-6.528,17.112,0,23.641l13.709,13.709    c-13.316,4.618-28.858,1.743-39.721-9.118l-66.063-66.063L94.6,67.893l66.064,66.063    C171.536,144.83,174.394,160.38,169.782,173.676z M351.334,133.956l66.064-66.063l54.243,54.243l-66.063,66.063    c-10.876,10.875-26.426,13.73-39.721,9.12l13.709-13.709c6.528-6.529,6.528-17.112,0-23.641c-6.527-6.528-17.112-6.528-23.641,0    l-13.694,13.694C337.583,160.214,340.615,144.676,351.334,133.956z"/>
	</g>
</g>
<g>
</g>
<g>
</g>
<g>
</g>
<g>
</g>
<g>
</g>
<g>
</g>
<g>
</g>
<g>
</g>
<g>
</g>
<g>
</g>
<g>
</g>
<g>
</g>
<g>
</g>
<g>
</g>
<g>
</g>
</svg>
