<?xml version="1.0" encoding="iso-8859-1"?>
<!-- Generator: Adobe Illustrator 19.0.0, SVG Export Plug-In . SVG Version: 6.00 Build 0)  -->
<svg xmlns="http://www.w3.org/2000/svg" xmlns:xlink="http://www.w3.org/1999/xlink" version="1.1" id="Layer_1" x="0px" y="0px" viewBox="0 0 512 512" style="enable-background:new 0 0 512 512;" xml:space="preserve">
<g>
	<g>
		<path d="M494.924,294.811h-37.876l-18.693-56.494h6.365c11.614,0,19.856-11.385,16.202-22.427l-18.829-56.905    c-2.312-6.987-8.842-11.705-16.202-11.705H299.234v-41.475c0-9.425-7.641-17.066-17.066-17.066h-52.336    c-9.425,0-17.066,7.641-17.066,17.066v41.476h-13.511V62.586c0-9.425-7.641-17.066-17.066-17.066h-52.336    c-9.425,0-17.066,7.641-17.066,17.066v84.695H62.586c-9.425,0-17.066,7.641-17.066,17.066v56.905    c0,9.425,7.641,17.066,17.066,17.066h50.202v56.494H62.586c-7.36,0-13.889,4.718-16.202,11.705L0.875,444.053    c-3.649,11.027,4.571,22.427,16.202,22.427h432.337c7.36,0,13.889-4.718,16.202-11.705l45.509-137.537    C514.774,306.211,506.554,294.811,494.924,294.811z M246.899,122.871h18.204v24.41h-18.204V122.871z M146.92,79.652h18.204v67.629    H146.92V79.652z M79.652,204.185v-22.773c8.704,0,328.688,0,333.908,0l7.535,22.773C404.92,204.185,96.573,204.185,79.652,204.185    z M421.095,294.811h-71.836v-56.494h53.143L421.095,294.811z M315.127,238.317v56.494H146.92v-56.494H315.127z M437.085,432.348    H40.7l34.215-103.405c15.665,0,373.941,0,396.385,0L437.085,432.348z"/>
	</g>
</g>
<g>
	<g>
		<path d="M123.134,352.202c-15.684,0-28.443,12.76-28.443,28.443c0,15.684,12.76,28.443,28.443,28.443s28.443-12.76,28.443-28.443    C151.577,364.962,138.818,352.202,123.134,352.202z"/>
	</g>
</g>
<g>
	<g>
		<path d="M211.711,352.202c-15.684,0-28.443,12.76-28.443,28.443c0,15.684,12.76,28.443,28.443,28.443    c15.684,0,28.443-12.76,28.443-28.443C240.154,364.962,227.395,352.202,211.711,352.202z"/>
	</g>
</g>
<g>
	<g>
		<path d="M300.289,352.202c-15.684,0-28.443,12.76-28.443,28.443c0,15.684,12.76,28.443,28.443,28.443s28.443-12.76,28.443-28.443    C328.732,364.962,315.973,352.202,300.289,352.202z"/>
	</g>
</g>
<g>
	<g>
		<path d="M388.866,352.202c-15.684,0-28.443,12.76-28.443,28.443c0,15.684,12.76,28.443,28.443,28.443s28.443-12.76,28.443-28.443    C417.309,364.962,404.549,352.202,388.866,352.202z"/>
	</g>
</g>
<g>
</g>
<g>
</g>
<g>
</g>
<g>
</g>
<g>
</g>
<g>
</g>
<g>
</g>
<g>
</g>
<g>
</g>
<g>
</g>
<g>
</g>
<g>
</g>
<g>
</g>
<g>
</g>
<g>
</g>
</svg>
