<?xml version="1.0" encoding="iso-8859-1"?>
<!-- Generator: Adobe Illustrator 19.0.0, SVG Export Plug-In . SVG Version: 6.00 Build 0)  -->
<svg xmlns="http://www.w3.org/2000/svg" xmlns:xlink="http://www.w3.org/1999/xlink" version="1.1" id="Layer_1" x="0px" y="0px" viewBox="0 0 512 512" style="enable-background:new 0 0 512 512;" xml:space="preserve">
<g>
	<g>
		<path d="M280.29,237.274h-48.566c-10.345,0-18.732,8.387-18.732,18.732c0,10.345,8.387,18.732,18.732,18.732h48.566    c10.345,0,18.732-8.387,18.732-18.732C299.022,245.661,290.635,237.274,280.29,237.274z"/>
	</g>
</g>
<g>
	<g>
		<path d="M480.023,365.216l-37.597,37.587c-4.321-0.849-8.807-0.85-13.134,0l-20.434-20.428c8.132-15.277,6.057-35.1-7.272-48.426    l-29.408-29.408c-4.94-4.942-7.661-11.509-7.661-18.496v-60.085c0-6.986,2.721-13.555,7.661-18.495l29.407-29.408    c13.294-13.291,15.428-33.103,7.276-48.422l20.451-20.444c4.338,0.854,8.764,0.854,13.106,0l37.604,37.603    c7.314,7.316,19.175,7.317,26.491,0c7.316-7.315,7.316-19.175,0-26.491l-37.604-37.603c2.097-10.657-0.973-22.14-9.214-30.382    c-8.24-8.24-19.721-11.31-30.381-9.214L391.71,5.499c-7.314-7.314-19.175-7.316-26.491,0c-7.316,7.314-7.316,19.175,0,26.491    l37.603,37.604c-0.85,4.322-0.85,8.779,0,13.101l-20.468,20.462c-15.555-8.232-35.318-5.813-48.398,7.267l-29.409,29.409    c-4.94,4.94-11.509,7.661-18.496,7.661h-60.085c-6.987,0-13.555-2.721-18.496-7.661l-29.409-29.408    c-13.08-13.081-32.844-15.501-48.4-7.266l-20.472-20.475c0.849-4.318,0.848-8.772,0-13.091l37.608-37.618    c7.313-7.315,7.312-19.177-0.004-26.491c-7.317-7.313-19.174-7.313-26.492,0.004L82.715,43.085    c-10.737-2.109-22.148,0.983-30.398,9.234c-8.237,8.238-11.305,19.715-9.211,30.369L5.497,120.303    c-7.313,7.316-7.312,19.177,0.004,26.491c7.318,7.314,19.174,7.314,26.492-0.004l37.585-37.595c4.322,0.849,8.81,0.85,13.139,0    l20.452,20.453c-8.24,15.558-5.821,35.324,7.262,48.406l29.408,29.408c4.94,4.94,7.661,11.509,7.661,18.496v60.086    c0,6.987-2.721,13.555-7.66,18.495l-29.409,29.409c-13.079,13.078-15.5,32.835-7.272,48.39l-20.457,20.463    c-4.318-0.848-8.803-0.85-13.128,0l-37.597-37.597c-7.314-7.315-19.175-7.315-26.491,0c-7.315,7.316-7.315,19.175,0,26.491    l37.618,37.618c-2.094,10.654,0.975,22.13,9.212,30.367c8.042,8.042,19.428,11.363,30.367,9.212l37.618,37.618    c7.314,7.316,19.175,7.317,26.491,0c7.315-7.315,7.315-19.175,0-26.491l-37.618-37.618c0.849-4.32,0.849-8.773,0-13.091    l20.47-20.477c15.56,8.245,35.331,5.828,48.415-7.256l29.409-29.409c4.94-4.94,11.509-7.66,18.496-7.66h60.085    c6.987,0,13.555,2.721,18.496,7.661l29.409,29.408c13.045,13.046,32.79,15.525,48.393,7.271l20.454,20.448    c-0.849,4.321-0.85,8.808,0,13.135l-37.597,37.587c-7.316,7.314-7.317,19.174-0.004,26.491c7.313,7.314,19.173,7.321,26.492,0.004    l37.597-37.587c10.747,2.113,22.149-0.993,30.39-9.232c0,0,0,0,0.001,0c8.246-8.246,11.34-19.659,9.231-30.396l37.597-37.587    c7.315-7.314,7.317-19.174,0.004-26.491C499.199,357.903,487.34,357.902,480.023,365.216z M375.095,365.689l-9.398,9.399    c-1.449,1.447-3.804,1.446-5.25,0l-29.409-29.408c-12.016-12.016-27.992-18.633-44.986-18.633h-60.085    c-16.994,0-32.97,6.617-44.986,18.633l-29.409,29.409c-1.446,1.446-3.803,1.446-5.249,0c-4.874-4.874-6.676-6.676-9.398-9.399    c-1.447-1.447-1.447-3.801,0-5.249l29.411-29.409c12.015-12.017,18.632-27.993,18.632-44.986v-60.088    c0-16.992-6.617-32.969-18.633-44.986l-29.409-29.409c-1.447-1.447-1.447-3.801,0-5.25l9.398-9.399    c1.446-1.446,3.803-1.447,5.249,0l29.409,29.408c12.016,12.017,27.993,18.635,44.986,18.635h60.085    c16.992,0,32.97-6.617,44.986-18.635l29.409-29.408c1.449-1.449,3.801-1.447,5.25,0c1.514,1.514,3.48,3.48,9.399,9.398    c1.452,1.452,1.454,3.794-0.001,5.25l-29.408,29.409c-12.016,12.016-18.635,27.993-18.635,44.986v60.086    c0,16.994,6.619,32.97,18.635,44.986l29.409,29.409C376.545,361.892,376.55,364.234,375.095,365.689z"/>
	</g>
</g>
<g>
</g>
<g>
</g>
<g>
</g>
<g>
</g>
<g>
</g>
<g>
</g>
<g>
</g>
<g>
</g>
<g>
</g>
<g>
</g>
<g>
</g>
<g>
</g>
<g>
</g>
<g>
</g>
<g>
</g>
</svg>
