<?xml version="1.0" encoding="iso-8859-1"?>
<!-- Generator: Adobe Illustrator 19.0.0, SVG Export Plug-In . SVG Version: 6.00 Build 0)  -->
<svg xmlns="http://www.w3.org/2000/svg" xmlns:xlink="http://www.w3.org/1999/xlink" version="1.1" id="Layer_1" x="0px" y="0px" viewBox="0 0 512 512" style="enable-background:new 0 0 512 512;" xml:space="preserve">
<g>
	<g>
		<path d="M369.663,0H167.269c-54.906,0-99.574,44.669-99.574,99.574v66.71c-14.753,7.028-24.976,22.081-24.976,39.481v113.646    c0,17.399,10.223,32.453,24.976,39.481v53.533c0,54.905,44.669,99.574,99.574,99.574h131.393    c46.813,0,86.744-31.884,97.104-77.536l71.002-312.853C480.921,59.233,433.489,0,369.663,0z M80.183,205.765    c0-3.443,2.801-6.244,6.244-6.244h49.951c3.443,0,6.244,2.801,6.244,6.244v63.231H80.183V205.765z M86.427,325.656    c-3.443,0-6.244-2.801-6.244-6.244v-12.952h62.439v12.952c0,3.443-2.801,6.244-6.244,6.244H86.427z M430.233,113.319    l-71.002,312.853c-6.462,28.476-31.371,48.364-60.571,48.364H167.269c-34.248,0-62.111-27.863-62.111-62.111v-49.307h12.488    v49.307c0,27.362,22.261,49.623,49.623,49.623h131.393c23.328,0,43.228-15.889,48.391-38.64l71.002-312.853    c7.053-31.082-16.585-60.605-48.393-60.605H167.269c-27.362,0-49.623,22.261-49.623,49.623v62.484h-12.488V99.574    c0-34.248,27.863-62.111,62.111-62.111h202.394C409.565,37.463,439.044,74.494,430.233,113.319z M155.11,166.284v-66.71    c0-6.705,5.455-12.159,12.159-12.159h202.394c7.83,0,13.584,7.248,11.858,14.851l-71.002,312.852    c-1.285,5.663-6.05,9.468-11.857,9.468H167.269c-6.705,0-12.159-5.455-12.159-12.159v-53.533    c14.753-7.028,24.976-22.081,24.976-39.481V205.765C180.085,188.366,169.863,173.312,155.11,166.284z"/>
	</g>
</g>
<g>
</g>
<g>
</g>
<g>
</g>
<g>
</g>
<g>
</g>
<g>
</g>
<g>
</g>
<g>
</g>
<g>
</g>
<g>
</g>
<g>
</g>
<g>
</g>
<g>
</g>
<g>
</g>
<g>
</g>
</svg>
