<?xml version="1.0" encoding="iso-8859-1"?>
<!-- Generator: Adobe Illustrator 19.0.0, SVG Export Plug-In . SVG Version: 6.00 Build 0)  -->
<svg xmlns="http://www.w3.org/2000/svg" xmlns:xlink="http://www.w3.org/1999/xlink" version="1.1" id="Layer_1" x="0px" y="0px" viewBox="0 0 512 512" style="enable-background:new 0 0 512 512;" xml:space="preserve">
<g>
	<g>
		<path d="M494.923,294.811h-37.876l-18.693-56.494h6.364c11.614,0,19.856-11.385,16.202-22.427l-18.829-56.905    c-2.312-6.987-8.842-11.705-16.202-11.705H199.255V62.586c0-9.425-7.641-17.066-17.066-17.066h-52.336    c-9.425,0-17.066,7.641-17.066,17.066v84.695H62.586c-9.425,0-17.066,7.641-17.066,17.066v56.905    c0,9.425,7.641,17.066,17.066,17.066h50.202v56.494H62.586c-7.36,0-13.889,4.718-16.202,11.705    c-2.183,6.6-43.904,132.685-45.509,137.537c-3.649,11.027,4.571,22.427,16.202,22.427h432.337c7.36,0,13.889-4.718,16.202-11.705    c2.183-6.6,43.904-132.687,45.508-137.537C514.774,306.211,506.554,294.811,494.923,294.811z M146.92,79.652h18.204v67.629H146.92    V79.652z M79.652,204.184v-22.773c12.273,0,314.333,0,333.908,0l7.535,22.773C412.062,204.184,88.896,204.184,79.652,204.184z     M421.095,294.811h-71.836v-56.494h53.143L421.095,294.811z M315.127,238.317v56.494H146.92v-56.494H315.127z M437.085,432.348    H40.7l11.46-34.636h396.385L437.085,432.348z M459.84,363.579H63.454l11.46-34.636c19.651,0,372.712,0,396.385,0L459.84,363.579z"/>
	</g>
</g>
<g>
</g>
<g>
</g>
<g>
</g>
<g>
</g>
<g>
</g>
<g>
</g>
<g>
</g>
<g>
</g>
<g>
</g>
<g>
</g>
<g>
</g>
<g>
</g>
<g>
</g>
<g>
</g>
<g>
</g>
</svg>
