<?xml version="1.0" encoding="iso-8859-1"?>
<!-- Generator: Adobe Illustrator 19.0.0, SVG Export Plug-In . SVG Version: 6.00 Build 0)  -->
<svg xmlns="http://www.w3.org/2000/svg" xmlns:xlink="http://www.w3.org/1999/xlink" version="1.1" id="Layer_1" x="0px" y="0px" viewBox="0 0 512 512" style="enable-background:new 0 0 512 512;" xml:space="preserve">
<g>
	<g>
		<path d="M502.319,472.466l-51.33-121.031c-2.315-5.461-7.081-9.501-12.846-10.894l-82.538-19.944l-59.027-147.41    c-1.385-3.458-3.906-6.605-7.151-8.721l-75.885-49.535l-44.176-80.24c-3.293-5.982-9.581-9.698-16.409-9.698H18.732    C8.387,24.992,0,33.379,0,43.724v436.055c0,10.345,8.387,18.732,18.732,18.732h466.342    C498.483,498.511,507.549,484.8,502.319,472.466z M37.463,461.046V62.455h104.424l41.091,74.638    c1.481,2.689,3.599,4.973,6.17,6.651l43.787,28.583l-72.61,18.019c-7.769,1.928-13.453,8.579-14.15,16.553l-7.6,87.12    c-0.899,10.306,6.727,19.39,17.033,20.289c0.555,0.049,1.104,0.072,1.65,0.072c9.608,0,17.789-7.353,18.639-17.105l6.438-73.79    l85.528-21.224l49.643,123.973l-45.407,18.563c-9.576,3.915-14.165,14.852-10.25,24.427c3.914,9.573,14.845,14.165,24.427,10.25    l57.018-23.31l76.886,18.578l36.602,86.303H37.463z"/>
	</g>
</g>
<g>
	<g>
		<path d="M449.597,120.782L425.94,27.618c-2.92-11.499-15.673-17.417-26.338-12.239l-89.63,43.523    c-8.557,4.155-12.64,14.062-9.497,23.04l25.28,72.207c3.224,9.209,12.949,14.364,22.332,11.955l88.007-22.565    C446.099,140.972,452.14,130.792,449.597,120.782z M355.434,125.544l-14.086-40.232l53.94-26.191l13.399,52.768L355.434,125.544z"/>
	</g>
</g>
<g>
	<g>
		<path d="M506.301,242.141l-48.594-47.069c-8.687-8.412-22.963-6.501-29.135,3.885l-30.996,52.157    c-4.968,8.358-2.714,19.128,5.189,24.793l58.558,41.982c9.653,6.921,23.195,3.208,28.016-7.581l21.032-47.069    C513.582,256.05,511.956,247.619,506.301,242.141z M464.496,274.069l-25.935-18.593l10.105-17.002l22.148,21.454L464.496,274.069z    "/>
	</g>
</g>
<g>
</g>
<g>
</g>
<g>
</g>
<g>
</g>
<g>
</g>
<g>
</g>
<g>
</g>
<g>
</g>
<g>
</g>
<g>
</g>
<g>
</g>
<g>
</g>
<g>
</g>
<g>
</g>
<g>
</g>
</svg>
