<?xml version="1.0" encoding="iso-8859-1"?>
<!-- Generator: Adobe Illustrator 19.0.0, SVG Export Plug-In . SVG Version: 6.00 Build 0)  -->
<svg xmlns="http://www.w3.org/2000/svg" xmlns:xlink="http://www.w3.org/1999/xlink" version="1.1" id="Layer_1" x="0px" y="0px" viewBox="0 0 512 512" style="enable-background:new 0 0 512 512;" xml:space="preserve">
<g>
	<g>
		<path d="M468.289,0H43.711C33.366,0,24.979,8.387,24.979,18.732v474.537c0,10.345,8.387,18.732,18.732,18.732h153.932    c8.916,0,16.596-6.285,18.361-15.024L256,298.896l39.996,198.08c1.764,8.74,9.445,15.024,18.361,15.024h153.932    c10.345,0,18.732-8.387,18.732-18.732V18.732C487.021,8.387,478.634,0,468.289,0z M89.222,474.537H62.443V90.385h26.779V474.537z     M385.314,474.537h-55.631l-55.322-273.99c-2.378-11.73-11.866-13.868-22.552-18.102c-17.56-6.958-28.906-23.659-28.906-42.548    c0-10.345-8.387-18.732-18.732-18.732c-10.345,0-18.732,8.387-18.732,18.732c0,33.095,19.159,62.49,49.117,75.912l-52.242,258.729    h-55.631V90.385h258.629V474.537z M449.557,474.537h-26.779V90.385h26.779V474.537z M449.557,52.922H62.443V37.463h387.115V52.922    z"/>
	</g>
</g>
<g>
</g>
<g>
</g>
<g>
</g>
<g>
</g>
<g>
</g>
<g>
</g>
<g>
</g>
<g>
</g>
<g>
</g>
<g>
</g>
<g>
</g>
<g>
</g>
<g>
</g>
<g>
</g>
<g>
</g>
</svg>
