<?xml version="1.0" encoding="iso-8859-1"?>
<!-- Generator: Adobe Illustrator 19.0.0, SVG Export Plug-In . SVG Version: 6.00 Build 0)  -->
<svg xmlns="http://www.w3.org/2000/svg" xmlns:xlink="http://www.w3.org/1999/xlink" version="1.1" id="Layer_1" x="0px" y="0px" viewBox="0 0 512.003 512.003" style="enable-background:new 0 0 512.003 512.003;" xml:space="preserve">
<g>
	<g>
		<path d="M505.432,270.932c-7.437-5.797-18.159-4.469-23.954,2.963c-17.435,22.357-51.193,22.395-68.659,0.006    c-31.004-39.741-90.825-39.861-122.049-0.546c-0.15,0.176-0.297,0.356-0.439,0.54c-17.435,22.357-51.193,22.395-68.659,0.006    c-31.004-39.741-90.825-39.861-122.049-0.546c-0.15,0.176-0.297,0.356-0.439,0.54c-17.439,22.362-51.195,22.389-68.66,0.006    c-5.797-7.432-16.522-8.758-23.954-2.958c-7.431,5.798-8.756,16.522-2.958,23.954c30.945,39.665,90.765,39.935,122.048,0.546    c0.15-0.176,0.297-0.356,0.439-0.54c17.439-22.36,51.192-22.395,68.66-0.006c30.945,39.665,90.765,39.935,122.048,0.546    c0.15-0.176,0.297-0.356,0.439-0.54c17.439-22.36,51.192-22.395,68.66-0.006c31.103,39.869,91.347,39.92,122.486-0.011    C514.19,287.452,512.863,276.729,505.432,270.932z"/>
	</g>
</g>
<g>
	<g>
		<path d="M412.822,381.325c-30.94-39.654-90.772-39.931-122.053-0.546c-0.149,0.176-0.296,0.356-0.438,0.539    c-17.438,22.358-51.192,22.396-68.659,0.006c-31.095-39.856-91.353-39.914-122.487,0.011c-5.797,7.433-4.47,18.157,2.963,23.954    c7.435,5.796,18.158,4.468,23.954-2.963c17.435-22.358,51.193-22.395,68.659-0.006c30.993,39.728,90.824,39.86,122.049,0.546    c0.15-0.176,0.296-0.356,0.439-0.54c17.435-22.358,51.193-22.395,68.659-0.006c5.798,7.431,16.522,8.756,23.955,2.958    C417.294,399.481,418.619,388.757,412.822,381.325z"/>
	</g>
</g>
<g>
	<g>
		<path d="M178.095,132.422l-35.74-46.056c-6.826-8.794-20.134-8.802-26.966,0l-13.171,16.97L89.049,86.367    c-6.824-8.793-20.134-8.803-26.966,0l-35.74,46.055c-5.779,7.447-4.427,18.168,3.02,23.947c7.448,5.779,18.167,4.426,23.947-3.02    l22.257-28.681l5.049,6.505c-5.271,6.79-5.69,13.346-2.814,19.219c2.866,5.852,8.812,9.56,15.327,9.56h18.179    c6.516,0,12.462-3.709,15.327-9.56c2.843-5.806,2.508-12.366-2.814-19.219l5.049-6.505l22.257,28.681    c5.781,7.449,16.501,8.796,23.947,3.02C182.522,150.59,183.874,139.869,178.095,132.422z"/>
	</g>
</g>
<g>
	<g>
		<path d="M462.912,178.478l-35.74-46.056c-6.826-8.794-20.134-8.802-26.966,0l-13.167,16.97l-13.169-16.97    c-6.826-8.794-20.134-8.802-26.966,0l-35.74,46.056c-5.783,7.447-4.431,18.168,3.016,23.947c7.449,5.78,18.169,4.427,23.947-3.021    l22.257-28.681l5.049,6.506c-5.274,6.794-5.689,13.348-2.814,19.219c2.866,5.852,8.812,9.56,15.327,9.56h18.179    c6.515,0,12.461-3.709,15.327-9.56c2.85-5.82,2.496-12.381-2.814-19.219l5.049-6.506l22.257,28.681    c5.781,7.45,16.501,8.796,23.947,3.021C467.339,196.646,468.691,185.925,462.912,178.478z"/>
	</g>
</g>
<g>
</g>
<g>
</g>
<g>
</g>
<g>
</g>
<g>
</g>
<g>
</g>
<g>
</g>
<g>
</g>
<g>
</g>
<g>
</g>
<g>
</g>
<g>
</g>
<g>
</g>
<g>
</g>
<g>
</g>
</svg>
