<?xml version="1.0" encoding="iso-8859-1"?>
<!-- Generator: Adobe Illustrator 19.0.0, SVG Export Plug-In . SVG Version: 6.00 Build 0)  -->
<svg xmlns="http://www.w3.org/2000/svg" xmlns:xlink="http://www.w3.org/1999/xlink" version="1.1" id="Layer_1" x="0px" y="0px" viewBox="0 0 512 512" style="enable-background:new 0 0 512 512;" xml:space="preserve">
<g>
	<g>
		<path d="M461.11,50.891c-67.855-67.855-178.263-67.854-246.117,0l-198.77,198.77c-21.628,21.627-21.632,56.637,0,78.267    l167.849,167.85c21.627,21.628,56.637,21.632,78.267,0l198.77-198.77C528.964,229.153,528.964,118.746,461.11,50.891z     M435.848,271.746l-198.77,198.77c-7.666,7.666-20.077,7.667-27.743,0L41.483,302.666c-7.667-7.667-7.667-20.077,0-27.743    l198.771-198.77c53.924-53.923,141.667-53.926,195.594,0C489.772,130.078,489.772,217.821,435.848,271.746z"/>
	</g>
</g>
<g>
	<g>
		<path d="M408.103,103.896c-38.67-38.671-101.435-38.672-140.106,0L95.731,276.163c-6.972,6.972-6.975,18.287,0,25.262    L210.576,416.27c6.972,6.972,18.287,6.975,25.262,0c11.86-11.86,167.997-167.997,172.267-172.267    C446.774,205.332,446.777,142.567,408.103,103.896z M223.206,378.377l-89.584-89.583l50.327-50.327l13.02,13.02l-24.647,24.647    c-6.976,6.976-6.976,18.286,0,25.262c6.975,6.976,18.286,6.977,25.262,0l24.647-24.647l13.02,13.02l-24.647,24.647    c-6.976,6.976-6.976,18.286,0,25.262c6.975,6.976,18.286,6.977,25.262,0l24.647-24.647l13.02,13.02L223.206,378.377z     M298.796,302.787l-89.473-89.473l20.676-20.676l89.473,89.473L298.796,302.787z M382.842,218.74l-38.109,38.109l-13.02-13.02    l24.647-24.647c6.976-6.976,6.976-18.286,0-25.262c-6.975-6.976-18.286-6.976-25.262,0l-24.647,24.647l-13.021-13.021    l24.647-24.647c6.976-6.976,6.976-18.286,0-25.262c-6.975-6.976-18.286-6.976-25.262,0l-24.647,24.647l-13.02-13.02l38.109-38.109    c24.71-24.709,64.874-24.707,89.583,0C407.551,153.868,407.55,194.032,382.842,218.74z"/>
	</g>
</g>
<g>
</g>
<g>
</g>
<g>
</g>
<g>
</g>
<g>
</g>
<g>
</g>
<g>
</g>
<g>
</g>
<g>
</g>
<g>
</g>
<g>
</g>
<g>
</g>
<g>
</g>
<g>
</g>
<g>
</g>
</svg>
