<?xml version="1.0" encoding="iso-8859-1"?>
<!-- Generator: Adobe Illustrator 19.0.0, SVG Export Plug-In . SVG Version: 6.00 Build 0)  -->
<svg xmlns="http://www.w3.org/2000/svg" xmlns:xlink="http://www.w3.org/1999/xlink" version="1.1" id="Layer_1" x="0px" y="0px" viewBox="0 0 512 512" style="enable-background:new 0 0 512 512;" xml:space="preserve">
<g>
	<g>
		<path d="M274.587,0.134c-13.195-0.31-42.253,0.006-45.738,0.096C126.27,2.813,45.565,64.989,45.565,167.321v39.05    c0,9.423,7.639,17.062,17.062,17.062h34.204v10.544c0,21.952,17.86,39.812,39.812,39.812h155.716v140.188    c-5.939,2.67-10.08,8.624-10.08,15.557v65.404c0,9.423,7.639,17.062,17.062,17.062h68.249c9.423,0,17.062-7.639,17.062-17.062    v-65.404c0-6.933-4.143-12.888-10.08-15.557V273.789h0.785c21.952,0,39.812-17.86,39.812-39.812v-10.544h34.204    c9.423,0,17.062-7.639,17.062-17.062v-39.05C466.434,62.331,382.575,0.134,274.587,0.134z M274.239,34.258    c15.754,0.387,32.564,1.646,49.381,5.26c-44.4,5.274-85.669,24.378-118.7,55.203H100.963    C146.148,29.108,232.12,34.258,274.239,34.258z M350.527,477.876h-34.124v-31.28h34.124V477.876z M326.483,412.472V273.794h13.963    v138.678H326.483z M381.043,233.977c0,3.136-2.551,5.687-5.687,5.687H136.644c-3.136,0-5.687-2.551-5.687-5.687v-10.544H295.63    c9.423,0,17.062-7.639,17.062-17.062c0-10.549,8.582-19.132,19.132-19.132c10.556,0,19.144,8.582,19.144,19.132    c0,9.423,7.639,17.062,17.062,17.062h13.013V233.977z M432.31,189.308h-0.001c-12.278,0-15.4,0-16.071,0c-0.11,0-0.158,0-0.166,0    c-0.918,0-6.435,0-33.782,0c-7.131-21.023-27.06-36.195-50.466-36.195c-23.401,0-43.326,15.172-50.454,36.195    c-8.885,0-193.044,0-201.68,0v-21.988c0-13.605,1.769-26.476,5.23-38.475h126.887c4.517,0,8.85-1.791,12.048-4.98    c46.799-46.669,113.691-62.301,174.422-44.732c22.32,22.912,34.033,53.119,34.033,88.188V189.308z"/>
	</g>
</g>
<g>
</g>
<g>
</g>
<g>
</g>
<g>
</g>
<g>
</g>
<g>
</g>
<g>
</g>
<g>
</g>
<g>
</g>
<g>
</g>
<g>
</g>
<g>
</g>
<g>
</g>
<g>
</g>
<g>
</g>
</svg>
