<?xml version="1.0" encoding="iso-8859-1"?>
<!-- Generator: Adobe Illustrator 19.0.0, SVG Export Plug-In . SVG Version: 6.00 Build 0)  -->
<svg xmlns="http://www.w3.org/2000/svg" xmlns:xlink="http://www.w3.org/1999/xlink" version="1.1" id="Layer_1" x="0px" y="0px" viewBox="0 0 512.001 512.001" style="enable-background:new 0 0 512.001 512.001;" xml:space="preserve">
<g>
	<g>
		<path d="M473.78,230.687l9.725-9.725c39.127-39.127,36.794-100.785,0-137.581l-54.867-54.865    c-38.018-38.02-99.557-38.024-137.581,0l-9.724,9.724l-26.312-26.312c-7.685-7.686-20.16-7.689-27.848,0l-54.866,54.866    c-7.69,7.69-7.69,20.158,0,27.848l26.311,26.312c-7.51,7.51-69.595,69.595-83.807,83.807L88.499,178.45    c-7.685-7.686-20.16-7.689-27.848,0L5.786,233.317c-7.69,7.69-7.69,20.158,0,27.848l26.312,26.312l-10.875,10.875    c-0.003,0.003-0.005,0.005-0.007,0.007c-24.935,24.935-21.134,52.273-4.49,68.915L144.75,495.296    c17.804,17.802,46.619,17.806,64.424,0l15.373-15.372l26.312,26.312c7.685,7.686,20.16,7.689,27.848,0l54.866-54.866    c7.69-7.69,7.69-20.158,0-27.848l-26.31-26.312c10.223-10.223,73.124-73.124,83.807-83.807l26.312,26.312    c7.685,7.686,20.16,7.689,27.848,0l54.866-54.866c7.69-7.69,7.69-20.158,0-27.848L473.78,230.687z M241.097,53.701l12.387,12.387    c-11.199,11.201-4.638,4.639-27.018,27.018l-12.387-12.387L241.097,53.701z M74.576,220.223l12.389,12.387l-27.018,27.018    l-12.389-12.387L74.576,220.223z M264.78,464.463l-12.389-12.387c2.083-2.083,4.465-4.463,27.019-27.018l12.387,12.387    L264.78,464.463z M181.324,467.447c-2.409,2.409-6.316,2.413-8.729,0L44.572,339.424c-2.049-2.049-2.326-5.129-0.978-7.455    h273.207C310.545,338.226,185.912,462.859,181.324,467.447z M356.186,292.587H82.682c14.198-14.198,62.076-62.076,76.369-76.369    h273.504l-0.54,0.54c-0.003,0.003-0.005,0.004-0.007,0.007C386.221,262.554,402.781,245.992,356.186,292.587z M431.301,297.942    l-12.389-12.387l27.018-27.018l12.389,12.387L431.301,297.942z M467.096,176.835H198.434    c5.262-5.262,116.071-116.071,120.47-120.47c22.63-22.63,59.253-22.632,81.885,0l54.867,54.865    C473.369,128.942,477.179,155.367,467.096,176.835z"/>
	</g>
</g>
<g>
</g>
<g>
</g>
<g>
</g>
<g>
</g>
<g>
</g>
<g>
</g>
<g>
</g>
<g>
</g>
<g>
</g>
<g>
</g>
<g>
</g>
<g>
</g>
<g>
</g>
<g>
</g>
<g>
</g>
</svg>
