<?xml version="1.0" encoding="iso-8859-1"?>
<!-- Generator: Adobe Illustrator 19.0.0, SVG Export Plug-In . SVG Version: 6.00 Build 0)  -->
<svg xmlns="http://www.w3.org/2000/svg" xmlns:xlink="http://www.w3.org/1999/xlink" version="1.1" id="Layer_1" x="0px" y="0px" viewBox="0 0 512 512" style="enable-background:new 0 0 512 512;" xml:space="preserve">
<g>
	<g>
		<path d="M381.654,222.55l-29.028-58.055l8.322-16.003h12.376c4.365,0,7.216,4.529,5.327,8.465    c-4.079,8.497-0.497,18.693,8.001,22.771c8.506,4.082,18.697,0.487,22.771-8.001c12.767-26.6-6.646-57.369-36.099-57.369h-22.737    c-6.367,0-12.205,3.544-15.142,9.193l-12.339,23.728H195.596v-21.49h6.771c9.425,0,17.067-7.641,17.067-17.067    s-7.641-17.067-17.067-17.067c-0.059,0-0.111,0-0.159,0c-0.255,0-0.347,0-0.354,0c-1.652,0-10.194,0-47.161,0    c-9.425,0-17.067,7.641-17.067,17.067s7.641,17.067,17.067,17.067h6.769v34.528l-31.118,62.232    C65.501,202.882,0,251.714,0,319.281c0,55.726,45.336,101.062,101.062,101.062c49.912,0,91.482-36.371,99.615-84h20.214    c6.344,13,19.697,21.978,35.109,21.978c21.523,0,39.034-17.516,39.034-39.045c0-8.83-2.929-17.114-8.061-23.783l46.496-92.986    l17.675,35.351c-25.009,18.415-41.269,48.053-41.269,81.423c0,55.726,45.336,101.062,101.062,101.062    c55.726,0,101.063-45.336,101.063-101.062C512,251.539,446.353,202.925,381.654,222.55z M145.245,269.071    c9.819,8.651,17.094,20.119,20.531,33.138h-37.101L145.245,269.071z M101.062,386.21c-36.904,0-66.929-30.025-66.929-66.929    c0-42.245,38.939-74.206,80.605-65.519l-28.943,57.882c-5.662,11.322,2.579,24.699,15.264,24.699h64.719    C158.215,365.008,132.071,386.21,101.062,386.21z M220.845,302.209h-20.169c-4.492-26.292-19.172-49.149-39.821-64.353    l17.677-35.351l46.486,92.958C223.523,297.399,222.061,299.695,220.845,302.209z M256,324.188c-2.708,0-4.912-2.204-4.912-4.912    c0-2.765,2.279-4.9,4.912-4.9c2.518,0,4.9,2.035,4.9,4.9C260.9,321.985,258.702,324.188,256,324.188z M256.43,280.255    c-0.143-0.001-0.287-0.013-0.43-0.013c-0.142,0-0.283,0.011-0.426,0.013l-49.428-98.841h99.708L256.43,280.255z M410.938,386.21    c-36.905,0-66.929-30.025-66.929-66.929c0-19.982,8.813-37.933,22.744-50.208l28.92,57.84c4.218,8.435,14.471,11.846,22.898,7.632    c8.431-4.215,11.848-14.467,7.632-22.898l-28.943-57.887c41.7-8.695,80.606,23.314,80.606,65.52    C477.867,356.185,447.842,386.21,410.938,386.21z"/>
	</g>
</g>
<g>
</g>
<g>
</g>
<g>
</g>
<g>
</g>
<g>
</g>
<g>
</g>
<g>
</g>
<g>
</g>
<g>
</g>
<g>
</g>
<g>
</g>
<g>
</g>
<g>
</g>
<g>
</g>
<g>
</g>
</svg>
